<svg width="495" height="253" viewBox="0 0 495 253" fill="none" xmlns="http://www.w3.org/2000/svg">
<path d="M80.5695 17.6264V78H69.141V50.3353L50.225 77.2118H50.0674L31.8607 52.0693V78H20.8264V17.6264H20.9052L50.3039 59.3204L80.4118 17.6264H80.5695Z" fill="black"/>
<path d="M126.854 78L114.637 59.5569H106.992V78H95.5637V19.9909H113.14C120.338 19.9909 125.908 21.7511 129.849 25.2716C133.842 28.7395 135.839 33.4948 135.839 39.5374C135.839 43.1105 135.077 46.4733 133.553 49.626C132.082 52.7261 129.796 55.1694 126.696 56.9559L140.174 78H126.854ZM106.992 48.5225H115.11C118.21 48.5225 120.47 47.6293 121.889 45.8428C123.307 44.0037 124.017 42.0333 124.017 39.9315C124.017 37.8297 123.412 35.8331 122.204 33.9414C120.995 31.9973 118.657 31.0252 115.189 31.0252H106.992V48.5225Z" fill="black"/>
<path d="M175.227 19.9909H192.567C199.976 19.9909 206.071 21.4359 210.852 24.3258C215.634 27.1632 219.102 30.8676 221.256 35.439C223.463 39.9578 224.566 44.8182 224.566 50.0201C224.566 55.5898 223.253 60.5027 220.626 64.7588C217.998 69.0149 214.452 72.2989 209.985 74.6109C205.572 76.8703 200.711 78 195.404 78H175.227V19.9909ZM193.434 66.9657C199.371 66.9657 204.074 65.4419 207.542 62.3943C211.01 59.3467 212.744 54.9592 212.744 49.2319C212.744 44.608 211.772 40.9299 209.828 38.1976C207.936 35.4652 205.703 33.5736 203.128 32.5227C200.606 31.4719 198.215 30.9464 195.956 30.9464H186.656V66.9657H193.434Z" fill="black"/>
<path d="M275.599 19.9909V31.0252H247.461V43.3995H272.368V54.4338H247.461V66.9657H276.702V78H236.033V19.9909H275.599Z" fill="black"/>
<path d="M319.501 34.0203C314.457 31.2354 310.069 29.843 306.339 29.843C303.817 29.843 301.846 30.3422 300.427 31.3405C299.061 32.3388 298.378 33.8364 298.378 35.833C298.378 37.6721 299.377 39.301 301.373 40.7197C303.422 42.0858 306.129 43.3995 309.491 44.6605C312.224 45.6589 314.562 46.8148 316.506 48.1285C318.45 49.3895 320.053 51.1498 321.314 53.4092C322.628 55.6686 323.284 58.5323 323.284 62.0002C323.284 64.9952 322.496 67.7801 320.92 70.3548C319.396 72.8769 317.137 74.8999 314.142 76.4237C311.147 77.8949 307.573 78.6305 303.422 78.6305C299.955 78.6305 296.513 78.1314 293.098 77.133C289.682 76.0821 286.503 74.5058 283.561 72.404L288.605 63.4977C290.602 64.969 292.887 66.1775 295.462 67.1233C298.037 68.0691 300.349 68.542 302.398 68.542C304.815 68.542 306.917 68.0428 308.703 67.0445C310.49 65.9936 311.383 64.3122 311.383 62.0002C311.383 59.0052 308.572 56.4042 302.95 54.1973C299.639 52.8837 296.881 51.6227 294.674 50.4141C292.467 49.2056 290.549 47.4717 288.92 45.2122C287.344 42.9528 286.556 40.1154 286.556 36.7C286.556 31.7083 288.185 27.6887 291.442 24.6411C294.753 21.5935 299.14 19.9383 304.605 19.6756C308.913 19.6756 312.513 20.1748 315.403 21.1731C318.293 22.1189 321.104 23.4851 323.836 25.2716L319.501 34.0203Z" fill="black"/>
<path d="M345.905 19.9909V78H334.477V19.9909H345.905Z" fill="black"/>
<path d="M407.931 72.1676C407.038 73.1134 405.435 74.1117 403.123 75.1626C400.864 76.1609 398.342 77.0016 395.557 77.6847C392.825 78.3153 390.329 78.6305 388.069 78.6305C381.922 78.6305 376.509 77.4483 371.833 75.0838C367.209 72.6667 363.636 69.3564 361.114 65.1529C358.592 60.8968 357.331 56.0627 357.331 50.6506C357.331 43.8724 358.671 38.145 361.35 33.4686C364.03 28.7395 367.629 25.2191 372.148 22.9071C376.667 20.5426 381.659 19.3604 387.123 19.3604C390.644 19.3604 393.954 19.7544 397.054 20.5426C400.154 21.3308 402.887 22.3554 405.251 23.6165L401.547 34.2567C400.023 33.416 397.921 32.6541 395.242 31.971C392.614 31.2354 390.407 30.8676 388.621 30.8676C382.316 30.8676 377.481 32.4439 374.119 35.5966C370.808 38.7493 369.153 43.4257 369.153 49.626C369.153 53.199 369.968 56.3254 371.597 59.0052C373.225 61.6324 375.485 63.6554 378.375 65.0741C381.317 66.4928 384.654 67.2021 388.384 67.2021C391.958 67.2021 394.611 66.7029 396.345 65.7046V58.6899H386.335V47.6556H407.931V72.1676Z" fill="black"/>
<path d="M473.169 19.9909V80.3645H472.854L432.263 43.7147L432.5 78H420.914V17.7052H421.387L461.898 54.9067L461.662 19.9909H473.169Z" fill="black"/>
<path d="M50.6003 164.168C49.7071 165.113 48.1045 166.112 45.7925 167.163C43.5331 168.161 41.011 169.002 38.2261 169.685C35.4938 170.315 32.9979 170.631 30.7385 170.631C24.5908 170.631 19.1787 169.448 14.5023 167.084C9.87837 164.667 6.30534 161.356 3.7832 157.153C1.26107 152.897 0 148.063 0 142.651C0 135.872 1.33988 130.145 4.01965 125.469C6.69942 120.74 10.2987 117.219 14.8175 114.907C19.3364 112.543 24.3281 111.36 29.7927 111.36C33.3132 111.36 36.6235 111.754 39.7236 112.543C42.8238 113.331 45.5561 114.355 47.9206 115.616L44.2162 126.257C42.6924 125.416 40.5906 124.654 37.9108 123.971C35.2836 123.235 33.0768 122.868 31.2902 122.868C24.9849 122.868 20.1508 124.444 16.788 127.597C13.4777 130.749 11.8225 135.426 11.8225 141.626C11.8225 145.199 12.637 148.325 14.2658 151.005C15.8947 153.632 18.1541 155.655 21.0441 157.074C23.9866 158.493 27.3231 159.202 31.0538 159.202C34.6268 159.202 37.2803 158.703 39.0143 157.705V150.69H29.0046V139.656H50.6003V164.168Z" fill="black"/>
<path d="M73.8291 148.562C73.8291 150.401 74.3808 152.161 75.4842 153.843C76.5877 155.524 78.0589 156.89 79.898 157.941C81.737 158.992 83.7074 159.517 85.8092 159.517C88.0686 159.517 90.1442 158.992 92.0358 157.941C93.9274 156.89 95.3986 155.524 96.4495 153.843C97.5529 152.161 98.1046 150.401 98.1046 148.562V111.991H109.375V148.798C109.375 152.949 108.325 156.706 106.223 160.069C104.121 163.379 101.257 165.98 97.6317 167.872C94.0587 169.711 90.1179 170.631 85.8092 170.631C81.5006 170.631 77.5598 169.711 73.9867 167.872C70.4137 165.98 67.5763 163.379 65.4745 160.069C63.4253 156.706 62.4007 152.949 62.4007 148.798V111.991H73.8291V148.562Z" fill="black"/>
<path d="M134.586 111.991V170H123.157V111.991H134.586Z" fill="black"/>
<path d="M149.558 111.991H166.897C174.306 111.991 180.401 113.436 185.183 116.326C189.965 119.163 193.432 122.868 195.587 127.439C197.794 131.958 198.897 136.818 198.897 142.02C198.897 147.59 197.583 152.503 194.956 156.759C192.329 161.015 188.782 164.299 184.316 166.611C179.902 168.87 175.042 170 169.735 170H149.558V111.991ZM167.764 158.966C173.702 158.966 178.405 157.442 181.873 154.394C185.341 151.347 187.075 146.959 187.075 141.232C187.075 136.608 186.103 132.93 184.158 130.198C182.267 127.465 180.034 125.574 177.459 124.523C174.937 123.472 172.546 122.946 170.287 122.946H160.986V158.966H167.764Z" fill="black"/>
<path d="M249.93 111.991V123.025H221.792V135.399H246.698V146.434H221.792V158.966H251.033V170H210.364V111.991H249.93Z" fill="black"/>
<path d="M274.285 111.991V158.966H301.556V170H262.857V111.991H274.285Z" fill="black"/>
<path d="M324.777 111.991V170H313.349V111.991H324.777Z" fill="black"/>
<path d="M392.005 111.991V172.365H391.69L351.099 135.715L351.335 170H339.749V109.705H340.222L380.734 146.907L380.498 111.991H392.005Z" fill="black"/>
<path d="M446.51 111.991V123.025H418.372V135.399H443.278V146.434H418.372V158.966H447.613V170H406.944V111.991H446.51Z" fill="black"/>
<path d="M490.412 126.02C485.368 123.235 480.98 121.843 477.249 121.843C474.727 121.843 472.757 122.342 471.338 123.34C469.972 124.339 469.289 125.836 469.289 127.833C469.289 129.672 470.287 131.301 472.284 132.72C474.333 134.086 477.039 135.399 480.402 136.661C483.134 137.659 485.473 138.815 487.417 140.128C489.361 141.39 490.964 143.15 492.225 145.409C493.538 147.669 494.195 150.532 494.195 154C494.195 156.995 493.407 159.78 491.831 162.355C490.307 164.877 488.047 166.9 485.052 168.424C482.057 169.895 478.484 170.631 474.333 170.631C470.865 170.631 467.424 170.131 464.008 169.133C460.593 168.082 457.414 166.506 454.471 164.404L459.516 155.498C461.512 156.969 463.798 158.177 466.373 159.123C468.947 160.069 471.259 160.542 473.309 160.542C475.726 160.542 477.827 160.043 479.614 159.044C481.4 157.994 482.294 156.312 482.294 154C482.294 151.005 479.483 148.404 473.86 146.197C470.55 144.884 467.791 143.623 465.585 142.414C463.378 141.206 461.46 139.472 459.831 137.212C458.255 134.953 457.466 132.115 457.466 128.7C457.466 123.708 459.095 119.689 462.353 116.641C465.663 113.594 470.051 111.938 475.515 111.676C479.824 111.676 483.423 112.175 486.313 113.173C489.203 114.119 492.014 115.485 494.747 117.272L490.412 126.02Z" fill="black"/>
<path d="M134.473 34.626L135.97 23.5128L127.143 30.4487L123.359 23.7493L133.684 19.6508L123.438 15.71L126.985 9.32581L136.049 16.1829L134.473 4.91208H141.802L140.226 16.1829L149.211 9.32581L152.679 15.6312L142.433 19.7296L152.758 23.8281L149.054 30.3699L140.226 23.5128L141.724 34.626H134.473Z" fill="url(#paint0_linear)"/>
<path fill-rule="evenodd" clip-rule="evenodd" d="M129.777 38.731L130.551 32.9915L125.919 36.6305L117.471 21.6701L122.406 19.7111L117.556 17.8457L125.692 3.20028L130.608 6.91956L129.753 0.807037H146.522L145.675 6.86069L150.511 3.17027L158.513 17.7191L153.523 19.715L158.652 21.751L150.286 36.525L145.635 32.9123L146.419 38.731H129.777ZM140.226 23.5128L149.054 30.3699L152.758 23.8281L142.433 19.7296L152.679 15.6312L149.211 9.32581L140.226 16.1829L141.803 4.91207H134.473L136.049 16.1829L126.985 9.32581L123.438 15.71L133.684 19.6508L123.359 23.7493L127.143 30.4487L135.97 23.5128L134.473 34.626H141.724L140.226 23.5128Z" fill="white"/>
<path d="M132.218 227.762V214.103H135.184L139.536 222.767L143.828 214.103H146.794V227.762H144.297V218.337L140.492 225.811H138.521L134.716 218.337V227.762H132.218Z" fill="black" fill-opacity="0.3"/>
<path d="M149.444 227.762V214.103H154.459C155.552 214.103 156.45 214.291 157.152 214.669C157.867 215.033 158.401 215.534 158.752 216.171C159.103 216.796 159.279 217.492 159.279 218.259C159.279 219.092 159.058 219.853 158.615 220.542C158.186 221.232 157.51 221.732 156.586 222.045L159.415 227.762H156.547L154.01 222.376H151.942V227.762H149.444ZM151.942 220.542H154.303C155.136 220.542 155.747 220.34 156.137 219.937C156.528 219.534 156.723 219.001 156.723 218.337C156.723 217.687 156.528 217.166 156.137 216.776C155.76 216.386 155.142 216.191 154.284 216.191H151.942V220.542Z" fill="black" fill-opacity="0.3"/>
<path d="M170.493 227.996C169.335 227.996 168.372 227.703 167.605 227.118C166.837 226.532 166.389 225.739 166.259 224.737H167.937C168.041 225.245 168.307 225.687 168.737 226.064C169.179 226.428 169.771 226.611 170.512 226.611C171.202 226.611 171.709 226.467 172.034 226.181C172.36 225.882 172.522 225.531 172.522 225.128C172.522 224.542 172.307 224.152 171.878 223.957C171.462 223.762 170.87 223.586 170.103 223.43C169.582 223.326 169.062 223.176 168.542 222.981C168.021 222.786 167.585 222.513 167.234 222.162C166.883 221.797 166.707 221.323 166.707 220.737C166.707 219.892 167.02 219.202 167.644 218.669C168.281 218.122 169.14 217.849 170.22 217.849C171.247 217.849 172.086 218.109 172.737 218.63C173.4 219.137 173.784 219.866 173.888 220.815H172.268C172.203 220.321 171.989 219.937 171.625 219.664C171.273 219.378 170.798 219.235 170.2 219.235C169.615 219.235 169.159 219.358 168.834 219.605C168.522 219.853 168.366 220.178 168.366 220.581C168.366 220.971 168.568 221.277 168.971 221.498C169.387 221.719 169.946 221.908 170.649 222.064C171.247 222.194 171.813 222.357 172.347 222.552C172.893 222.734 173.335 223.014 173.673 223.391C174.025 223.755 174.2 224.289 174.2 224.991C174.213 225.863 173.882 226.585 173.205 227.157C172.542 227.716 171.638 227.996 170.493 227.996Z" fill="black" fill-opacity="0.3"/>
<path d="M179.928 227.762C179.043 227.762 178.347 227.547 177.84 227.118C177.333 226.689 177.079 225.915 177.079 224.796V219.469H175.401V218.083H177.079L177.294 215.761H178.718V218.083H181.567V219.469H178.718V224.796C178.718 225.407 178.842 225.824 179.089 226.045C179.336 226.253 179.772 226.357 180.396 226.357H181.411V227.762H179.928Z" fill="black" fill-opacity="0.3"/>
<path d="M186.869 227.996C186.062 227.996 185.393 227.859 184.859 227.586C184.326 227.313 183.929 226.949 183.669 226.493C183.409 226.038 183.279 225.544 183.279 225.01C183.279 224.022 183.656 223.261 184.41 222.728C185.165 222.194 186.193 221.927 187.493 221.927H190.108V221.81C190.108 220.965 189.887 220.327 189.445 219.898C189.002 219.456 188.411 219.235 187.669 219.235C187.032 219.235 186.479 219.397 186.01 219.723C185.555 220.035 185.269 220.497 185.152 221.108H183.474C183.539 220.405 183.773 219.814 184.176 219.332C184.593 218.851 185.106 218.487 185.718 218.24C186.329 217.979 186.98 217.849 187.669 217.849C189.022 217.849 190.037 218.214 190.713 218.942C191.402 219.657 191.747 220.614 191.747 221.81V227.762H190.284L190.186 226.025C189.913 226.572 189.51 227.04 188.976 227.43C188.456 227.807 187.754 227.996 186.869 227.996ZM187.123 226.611C187.747 226.611 188.28 226.448 188.723 226.123C189.178 225.798 189.523 225.375 189.757 224.854C189.991 224.334 190.108 223.788 190.108 223.215V223.196H187.63C186.667 223.196 185.984 223.365 185.581 223.703C185.191 224.028 184.996 224.438 184.996 224.932C184.996 225.44 185.178 225.85 185.542 226.162C185.919 226.461 186.446 226.611 187.123 226.611Z" fill="black" fill-opacity="0.3"/>
<path d="M194.206 227.762V218.083H195.689L195.787 219.82C196.099 219.209 196.548 218.727 197.133 218.376C197.718 218.025 198.382 217.849 199.123 217.849C200.268 217.849 201.179 218.201 201.855 218.903C202.545 219.592 202.889 220.659 202.889 222.103V227.762H201.25V222.279C201.25 220.262 200.418 219.254 198.753 219.254C197.92 219.254 197.224 219.56 196.665 220.171C196.118 220.77 195.845 221.628 195.845 222.747V227.762H194.206Z" fill="black" fill-opacity="0.3"/>
<path d="M209.763 227.996C208.8 227.996 207.955 227.775 207.226 227.333C206.511 226.89 205.951 226.285 205.548 225.518C205.158 224.75 204.963 223.879 204.963 222.903C204.963 221.927 205.164 221.062 205.568 220.308C205.971 219.54 206.53 218.942 207.246 218.513C207.961 218.07 208.807 217.849 209.782 217.849C210.576 217.849 211.278 218.012 211.89 218.337C212.501 218.662 212.976 219.118 213.314 219.703V213.713H214.953V227.762H213.47L213.314 226.162C213.002 226.63 212.553 227.053 211.968 227.43C211.383 227.807 210.648 227.996 209.763 227.996ZM209.939 226.572C210.589 226.572 211.161 226.422 211.656 226.123C212.163 225.811 212.553 225.381 212.826 224.835C213.113 224.289 213.256 223.651 213.256 222.923C213.256 222.194 213.113 221.557 212.826 221.01C212.553 220.464 212.163 220.041 211.656 219.742C211.161 219.43 210.589 219.274 209.939 219.274C209.301 219.274 208.729 219.43 208.221 219.742C207.727 220.041 207.337 220.464 207.051 221.01C206.778 221.557 206.641 222.194 206.641 222.923C206.641 223.651 206.778 224.289 207.051 224.835C207.337 225.381 207.727 225.811 208.221 226.123C208.729 226.422 209.301 226.572 209.939 226.572Z" fill="black" fill-opacity="0.3"/>
<path d="M221.333 227.996C220.175 227.996 219.212 227.703 218.445 227.118C217.677 226.532 217.228 225.739 217.098 224.737H218.776C218.881 225.245 219.147 225.687 219.576 226.064C220.019 226.428 220.611 226.611 221.352 226.611C222.042 226.611 222.549 226.467 222.874 226.181C223.199 225.882 223.362 225.531 223.362 225.128C223.362 224.542 223.147 224.152 222.718 223.957C222.302 223.762 221.71 223.586 220.942 223.43C220.422 223.326 219.902 223.176 219.381 222.981C218.861 222.786 218.425 222.513 218.074 222.162C217.723 221.797 217.547 221.323 217.547 220.737C217.547 219.892 217.859 219.202 218.484 218.669C219.121 218.122 219.98 217.849 221.059 217.849C222.087 217.849 222.926 218.109 223.577 218.63C224.24 219.137 224.624 219.866 224.728 220.815H223.108C223.043 220.321 222.829 219.937 222.464 219.664C222.113 219.378 221.638 219.235 221.04 219.235C220.455 219.235 219.999 219.358 219.674 219.605C219.362 219.853 219.206 220.178 219.206 220.581C219.206 220.971 219.407 221.277 219.811 221.498C220.227 221.719 220.786 221.908 221.489 222.064C222.087 222.194 222.653 222.357 223.186 222.552C223.733 222.734 224.175 223.014 224.513 223.391C224.864 223.755 225.04 224.289 225.04 224.991C225.053 225.863 224.721 226.585 224.045 227.157C223.381 227.716 222.477 227.996 221.333 227.996Z" fill="black" fill-opacity="0.3"/>
<path d="M233.072 227.762V219.469H231.609V218.083H233.072V216.405C233.072 215.469 233.307 214.786 233.775 214.357C234.243 213.927 234.926 213.713 235.824 213.713H236.799V215.118H236.077C235.583 215.118 235.232 215.222 235.024 215.43C234.816 215.625 234.712 215.963 234.712 216.444V218.083H237.092V219.469H234.712V227.762H233.072Z" fill="black" fill-opacity="0.3"/>
<path d="M243.072 227.996C242.162 227.996 241.342 227.788 240.614 227.372C239.885 226.955 239.306 226.37 238.877 225.615C238.461 224.848 238.253 223.95 238.253 222.923C238.253 221.895 238.467 221.004 238.897 220.249C239.326 219.482 239.905 218.89 240.633 218.474C241.375 218.057 242.201 217.849 243.111 217.849C244.022 217.849 244.841 218.057 245.57 218.474C246.298 218.89 246.871 219.482 247.287 220.249C247.716 221.004 247.931 221.895 247.931 222.923C247.931 223.95 247.716 224.848 247.287 225.615C246.858 226.37 246.272 226.955 245.531 227.372C244.802 227.788 243.983 227.996 243.072 227.996ZM243.072 226.591C243.632 226.591 244.152 226.454 244.633 226.181C245.115 225.908 245.505 225.498 245.804 224.952C246.103 224.406 246.253 223.729 246.253 222.923C246.253 222.116 246.103 221.44 245.804 220.893C245.518 220.347 245.134 219.937 244.653 219.664C244.172 219.391 243.658 219.254 243.111 219.254C242.552 219.254 242.032 219.391 241.55 219.664C241.069 219.937 240.679 220.347 240.38 220.893C240.08 221.44 239.931 222.116 239.931 222.923C239.931 223.729 240.08 224.406 240.38 224.952C240.679 225.498 241.062 225.908 241.531 226.181C242.012 226.454 242.526 226.591 243.072 226.591Z" fill="black" fill-opacity="0.3"/>
<path d="M250.21 227.762V218.083H251.693L251.83 219.937C252.129 219.3 252.584 218.792 253.195 218.415C253.807 218.038 254.561 217.849 255.459 217.849V219.566H255.01C254.438 219.566 253.911 219.671 253.43 219.879C252.948 220.074 252.565 220.412 252.278 220.893C251.992 221.375 251.849 222.038 251.849 222.884V227.762H250.21Z" fill="black" fill-opacity="0.3"/>
<path d="M262.443 227.762V214.103H265.409L269.76 222.767L274.053 214.103H277.019V227.762H274.521V218.337L270.717 225.811H268.746L264.941 218.337V227.762H262.443Z" fill="black" fill-opacity="0.3"/>
<path d="M280.684 215.937C280.359 215.937 280.085 215.833 279.864 215.625C279.656 215.404 279.552 215.131 279.552 214.805C279.552 214.493 279.656 214.233 279.864 214.025C280.085 213.817 280.359 213.713 280.684 213.713C280.996 213.713 281.263 213.817 281.484 214.025C281.705 214.233 281.816 214.493 281.816 214.805C281.816 215.131 281.705 215.404 281.484 215.625C281.263 215.833 280.996 215.937 280.684 215.937ZM279.864 227.762V218.083H281.503V227.762H279.864Z" fill="black" fill-opacity="0.3"/>
<path d="M283.382 227.762L286.738 222.923L283.382 218.083H285.157L287.87 222.084L290.601 218.083H292.358L289.001 222.923L292.358 227.762H290.601L287.87 223.762L285.157 227.762H283.382Z" fill="black" fill-opacity="0.3"/>
<path d="M298.008 227.996C297.084 227.996 296.265 227.788 295.549 227.372C294.834 226.942 294.268 226.35 293.851 225.596C293.448 224.841 293.247 223.95 293.247 222.923C293.247 221.908 293.448 221.023 293.851 220.269C294.255 219.501 294.814 218.91 295.53 218.493C296.258 218.064 297.097 217.849 298.047 217.849C298.983 217.849 299.79 218.064 300.466 218.493C301.156 218.91 301.683 219.462 302.047 220.152C302.411 220.841 302.593 221.583 302.593 222.376C302.593 222.519 302.587 222.662 302.574 222.806C302.574 222.949 302.574 223.111 302.574 223.293H294.866C294.905 224.035 295.074 224.653 295.373 225.147C295.686 225.628 296.069 225.993 296.525 226.24C296.993 226.487 297.487 226.611 298.008 226.611C298.684 226.611 299.25 226.454 299.705 226.142C300.161 225.83 300.492 225.407 300.7 224.874H302.32C302.06 225.771 301.559 226.519 300.818 227.118C300.089 227.703 299.152 227.996 298.008 227.996ZM298.008 219.235C297.227 219.235 296.531 219.475 295.92 219.957C295.321 220.425 294.977 221.114 294.886 222.025H300.974C300.935 221.153 300.635 220.471 300.076 219.976C299.517 219.482 298.827 219.235 298.008 219.235Z" fill="black" fill-opacity="0.3"/>
<path d="M309.156 227.996C308.193 227.996 307.348 227.775 306.619 227.333C305.904 226.89 305.345 226.285 304.941 225.518C304.551 224.75 304.356 223.879 304.356 222.903C304.356 221.927 304.558 221.062 304.961 220.308C305.364 219.54 305.923 218.942 306.639 218.513C307.354 218.07 308.2 217.849 309.176 217.849C309.969 217.849 310.671 218.012 311.283 218.337C311.894 218.662 312.369 219.118 312.707 219.703V213.713H314.346V227.762H312.863L312.707 226.162C312.395 226.63 311.946 227.053 311.361 227.43C310.776 227.807 310.041 227.996 309.156 227.996ZM309.332 226.572C309.982 226.572 310.554 226.422 311.049 226.123C311.556 225.811 311.946 225.381 312.22 224.835C312.506 224.289 312.649 223.651 312.649 222.923C312.649 222.194 312.506 221.557 312.22 221.01C311.946 220.464 311.556 220.041 311.049 219.742C310.554 219.43 309.982 219.274 309.332 219.274C308.694 219.274 308.122 219.43 307.615 219.742C307.12 220.041 306.73 220.464 306.444 221.01C306.171 221.557 306.034 222.194 306.034 222.923C306.034 223.651 306.171 224.289 306.444 224.835C306.73 225.381 307.12 225.811 307.615 226.123C308.122 226.422 308.694 226.572 309.332 226.572Z" fill="black" fill-opacity="0.3"/>
<path d="M322.163 227.762V214.103H327.178C328.27 214.103 329.168 214.291 329.87 214.669C330.586 215.033 331.119 215.534 331.47 216.171C331.822 216.796 331.997 217.492 331.997 218.259C331.997 219.092 331.776 219.853 331.334 220.542C330.905 221.232 330.228 221.732 329.304 222.045L332.134 227.762H329.265L326.729 222.376H324.66V227.762H322.163ZM324.66 220.542H327.021C327.854 220.542 328.465 220.34 328.856 219.937C329.246 219.534 329.441 219.001 329.441 218.337C329.441 217.687 329.246 217.166 328.856 216.776C328.478 216.386 327.861 216.191 327.002 216.191H324.66V220.542Z" fill="black" fill-opacity="0.3"/>
<path d="M338.691 227.996C337.767 227.996 336.948 227.788 336.232 227.372C335.517 226.942 334.951 226.35 334.535 225.596C334.132 224.841 333.93 223.95 333.93 222.923C333.93 221.908 334.132 221.023 334.535 220.269C334.938 219.501 335.497 218.91 336.213 218.493C336.941 218.064 337.78 217.849 338.73 217.849C339.667 217.849 340.473 218.064 341.15 218.493C341.839 218.91 342.366 219.462 342.73 220.152C343.094 220.841 343.277 221.583 343.277 222.376C343.277 222.519 343.27 222.662 343.257 222.806C343.257 222.949 343.257 223.111 343.257 223.293H335.549C335.588 224.035 335.758 224.653 336.057 225.147C336.369 225.628 336.753 225.993 337.208 226.24C337.676 226.487 338.171 226.611 338.691 226.611C339.367 226.611 339.933 226.454 340.389 226.142C340.844 225.83 341.176 225.407 341.384 224.874H343.003C342.743 225.771 342.242 226.519 341.501 227.118C340.772 227.703 339.836 227.996 338.691 227.996ZM338.691 219.235C337.91 219.235 337.215 219.475 336.603 219.957C336.005 220.425 335.66 221.114 335.569 222.025H341.657C341.618 221.153 341.319 220.471 340.759 219.976C340.2 219.482 339.511 219.235 338.691 219.235Z" fill="black" fill-opacity="0.3"/>
<path d="M348.669 227.996C347.862 227.996 347.192 227.859 346.659 227.586C346.125 227.313 345.729 226.949 345.468 226.493C345.208 226.038 345.078 225.544 345.078 225.01C345.078 224.022 345.455 223.261 346.21 222.728C346.964 222.194 347.992 221.927 349.293 221.927H351.908V221.81C351.908 220.965 351.687 220.327 351.244 219.898C350.802 219.456 350.21 219.235 349.469 219.235C348.831 219.235 348.278 219.397 347.81 219.723C347.355 220.035 347.069 220.497 346.951 221.108H345.273C345.338 220.405 345.573 219.814 345.976 219.332C346.392 218.851 346.906 218.487 347.517 218.24C348.129 217.979 348.779 217.849 349.469 217.849C350.821 217.849 351.836 218.214 352.513 218.942C353.202 219.657 353.547 220.614 353.547 221.81V227.762H352.083L351.986 226.025C351.713 226.572 351.309 227.04 350.776 227.43C350.256 227.807 349.553 227.996 348.669 227.996ZM348.922 226.611C349.547 226.611 350.08 226.448 350.522 226.123C350.978 225.798 351.322 225.375 351.556 224.854C351.791 224.334 351.908 223.788 351.908 223.215V223.196H349.43C348.467 223.196 347.784 223.365 347.381 223.703C346.99 224.028 346.795 224.438 346.795 224.932C346.795 225.44 346.977 225.85 347.342 226.162C347.719 226.461 348.246 226.611 348.922 226.611Z" fill="black" fill-opacity="0.3"/>
<path d="M356.006 227.762V213.713H357.645V227.762H356.006Z" fill="black" fill-opacity="0.3"/>
<path d="M361.326 215.937C361.001 215.937 360.728 215.833 360.507 215.625C360.299 215.404 360.195 215.131 360.195 214.805C360.195 214.493 360.299 214.233 360.507 214.025C360.728 213.817 361.001 213.713 361.326 213.713C361.639 213.713 361.905 213.817 362.126 214.025C362.348 214.233 362.458 214.493 362.458 214.805C362.458 215.131 362.348 215.404 362.126 215.625C361.905 215.833 361.639 215.937 361.326 215.937ZM360.507 227.762V218.083H362.146V227.762H360.507Z" fill="black" fill-opacity="0.3"/>
<path d="M368.824 227.762C367.94 227.762 367.244 227.547 366.736 227.118C366.229 226.689 365.975 225.915 365.975 224.796V219.469H364.297V218.083H365.975L366.19 215.761H367.615V218.083H370.463V219.469H367.615V224.796C367.615 225.407 367.738 225.824 367.985 226.045C368.232 226.253 368.668 226.357 369.293 226.357H370.307V227.762H368.824Z" fill="black" fill-opacity="0.3"/>
<path d="M373.599 232.055L376 226.825H375.434L371.59 218.083H373.365L376.565 225.615L379.961 218.083H381.658L375.317 232.055H373.599Z" fill="black" fill-opacity="0.3"/>
<path d="M136.648 252.996C135.737 252.996 134.918 252.788 134.189 252.372C133.461 251.955 132.882 251.37 132.453 250.615C132.036 249.848 131.828 248.95 131.828 247.923C131.828 246.895 132.043 246.004 132.472 245.249C132.901 244.482 133.48 243.89 134.209 243.474C134.95 243.057 135.776 242.849 136.687 242.849C137.597 242.849 138.417 243.057 139.145 243.474C139.874 243.89 140.446 244.482 140.863 245.249C141.292 246.004 141.506 246.895 141.506 247.923C141.506 248.95 141.292 249.848 140.863 250.615C140.433 251.37 139.848 251.955 139.106 252.372C138.378 252.788 137.558 252.996 136.648 252.996ZM136.648 251.591C137.207 251.591 137.727 251.454 138.209 251.181C138.69 250.908 139.08 250.498 139.38 249.952C139.679 249.406 139.828 248.729 139.828 247.923C139.828 247.116 139.679 246.44 139.38 245.893C139.093 245.347 138.71 244.937 138.228 244.664C137.747 244.391 137.233 244.254 136.687 244.254C136.127 244.254 135.607 244.391 135.126 244.664C134.644 244.937 134.254 245.347 133.955 245.893C133.656 246.44 133.506 247.116 133.506 247.923C133.506 248.729 133.656 249.406 133.955 249.952C134.254 250.498 134.638 250.908 135.106 251.181C135.588 251.454 136.101 251.591 136.648 251.591Z" fill="black" fill-opacity="0.3"/>
<path d="M143.785 252.762V243.083H145.268L145.405 244.937C145.704 244.3 146.16 243.792 146.771 243.415C147.382 243.038 148.137 242.849 149.034 242.849V244.566H148.586C148.013 244.566 147.486 244.671 147.005 244.879C146.524 245.074 146.14 245.412 145.854 245.893C145.568 246.375 145.425 247.038 145.425 247.884V252.762H143.785Z" fill="black" fill-opacity="0.3"/>
<path d="M156.019 252.762V239.103H158.985L163.336 247.767L167.629 239.103H170.595V252.762H168.097V243.337L164.292 250.811H162.321L158.516 243.337V252.762H156.019Z" fill="black" fill-opacity="0.3"/>
<path d="M176.484 252.996C175.677 252.996 175.007 252.859 174.474 252.586C173.941 252.313 173.544 251.949 173.284 251.493C173.024 251.038 172.893 250.544 172.893 250.01C172.893 249.022 173.271 248.261 174.025 247.728C174.78 247.194 175.807 246.927 177.108 246.927H179.723V246.81C179.723 245.965 179.502 245.327 179.059 244.898C178.617 244.456 178.025 244.235 177.284 244.235C176.646 244.235 176.094 244.397 175.625 244.723C175.17 245.035 174.884 245.497 174.767 246.108H173.089C173.154 245.405 173.388 244.814 173.791 244.332C174.207 243.851 174.721 243.487 175.333 243.24C175.944 242.979 176.594 242.849 177.284 242.849C178.637 242.849 179.651 243.214 180.328 243.942C181.017 244.657 181.362 245.614 181.362 246.81V252.762H179.899L179.801 251.025C179.528 251.572 179.125 252.04 178.591 252.43C178.071 252.807 177.368 252.996 176.484 252.996ZM176.737 251.611C177.362 251.611 177.895 251.448 178.338 251.123C178.793 250.798 179.138 250.375 179.372 249.854C179.606 249.334 179.723 248.788 179.723 248.215V248.196H177.245C176.282 248.196 175.599 248.365 175.196 248.703C174.806 249.028 174.611 249.438 174.611 249.932C174.611 250.44 174.793 250.85 175.157 251.162C175.534 251.461 176.061 251.611 176.737 251.611Z" fill="black" fill-opacity="0.3"/>
<path d="M188.211 252.996C187.249 252.996 186.403 252.775 185.675 252.333C184.959 251.89 184.4 251.285 183.997 250.518C183.606 249.75 183.411 248.879 183.411 247.903C183.411 246.927 183.613 246.062 184.016 245.308C184.419 244.54 184.979 243.942 185.694 243.513C186.41 243.07 187.255 242.849 188.231 242.849C189.024 242.849 189.727 243.012 190.338 243.337C190.95 243.662 191.424 244.118 191.763 244.703V238.713H193.402V252.762H191.919L191.763 251.162C191.45 251.63 191.002 252.053 190.416 252.43C189.831 252.807 189.096 252.996 188.211 252.996ZM188.387 251.572C189.037 251.572 189.61 251.422 190.104 251.123C190.611 250.811 191.002 250.381 191.275 249.835C191.561 249.289 191.704 248.651 191.704 247.923C191.704 247.194 191.561 246.557 191.275 246.01C191.002 245.464 190.611 245.041 190.104 244.742C189.61 244.43 189.037 244.274 188.387 244.274C187.749 244.274 187.177 244.43 186.67 244.742C186.175 245.041 185.785 245.464 185.499 246.01C185.226 246.557 185.089 247.194 185.089 247.923C185.089 248.651 185.226 249.289 185.499 249.835C185.785 250.381 186.175 250.811 186.67 251.123C187.177 251.422 187.749 251.572 188.387 251.572Z" fill="black" fill-opacity="0.3"/>
<path d="M200.425 252.996C199.501 252.996 198.682 252.788 197.966 252.372C197.251 251.942 196.685 251.35 196.269 250.596C195.865 249.841 195.664 248.95 195.664 247.923C195.664 246.908 195.865 246.023 196.269 245.269C196.672 244.501 197.231 243.91 197.947 243.493C198.675 243.064 199.514 242.849 200.464 242.849C201.401 242.849 202.207 243.064 202.883 243.493C203.573 243.91 204.1 244.462 204.464 245.152C204.828 245.841 205.01 246.583 205.01 247.376C205.01 247.519 205.004 247.662 204.991 247.806C204.991 247.949 204.991 248.111 204.991 248.293H197.283C197.322 249.035 197.491 249.653 197.791 250.147C198.103 250.628 198.487 250.993 198.942 251.24C199.41 251.487 199.905 251.611 200.425 251.611C201.101 251.611 201.667 251.454 202.122 251.142C202.578 250.83 202.91 250.407 203.118 249.874H204.737C204.477 250.771 203.976 251.519 203.235 252.118C202.506 252.703 201.57 252.996 200.425 252.996ZM200.425 244.235C199.644 244.235 198.948 244.475 198.337 244.957C197.739 245.425 197.394 246.114 197.303 247.025H203.391C203.352 246.153 203.053 245.471 202.493 244.976C201.934 244.482 201.244 244.235 200.425 244.235Z" fill="black" fill-opacity="0.3"/>
<path d="M212.874 252.762V244.469H211.41V243.083H212.874V241.405C212.874 240.469 213.108 239.786 213.576 239.357C214.044 238.927 214.727 238.713 215.625 238.713H216.601V240.118H215.879C215.384 240.118 215.033 240.222 214.825 240.43C214.617 240.625 214.513 240.963 214.513 241.444V243.083H216.893V244.469H214.513V252.762H212.874Z" fill="black" fill-opacity="0.3"/>
<path d="M222.874 252.996C221.963 252.996 221.143 252.788 220.415 252.372C219.686 251.955 219.108 251.37 218.678 250.615C218.262 249.848 218.054 248.95 218.054 247.923C218.054 246.895 218.269 246.004 218.698 245.249C219.127 244.482 219.706 243.89 220.434 243.474C221.176 243.057 222.002 242.849 222.913 242.849C223.823 242.849 224.643 243.057 225.371 243.474C226.1 243.89 226.672 244.482 227.088 245.249C227.518 246.004 227.732 246.895 227.732 247.923C227.732 248.95 227.518 249.848 227.088 250.615C226.659 251.37 226.074 251.955 225.332 252.372C224.604 252.788 223.784 252.996 222.874 252.996ZM222.874 251.591C223.433 251.591 223.953 251.454 224.435 251.181C224.916 250.908 225.306 250.498 225.605 249.952C225.905 249.406 226.054 248.729 226.054 247.923C226.054 247.116 225.905 246.44 225.605 245.893C225.319 245.347 224.935 244.937 224.454 244.664C223.973 244.391 223.459 244.254 222.913 244.254C222.353 244.254 221.833 244.391 221.352 244.664C220.87 244.937 220.48 245.347 220.181 245.893C219.882 246.44 219.732 247.116 219.732 247.923C219.732 248.729 219.882 249.406 220.181 249.952C220.48 250.498 220.864 250.908 221.332 251.181C221.813 251.454 222.327 251.591 222.874 251.591Z" fill="black" fill-opacity="0.3"/>
<path d="M230.011 252.762V243.083H231.494L231.631 244.937C231.93 244.3 232.385 243.792 232.997 243.415C233.608 243.038 234.363 242.849 235.26 242.849V244.566H234.811C234.239 244.566 233.712 244.671 233.231 244.879C232.75 245.074 232.366 245.412 232.08 245.893C231.793 246.375 231.65 247.038 231.65 247.884V252.762H230.011Z" fill="black" fill-opacity="0.3"/>
<path d="M242.244 252.762V239.103H247.259C248.352 239.103 249.249 239.291 249.952 239.669C250.667 240.033 251.201 240.534 251.552 241.171C251.903 241.796 252.079 242.492 252.079 243.259C252.079 244.092 251.858 244.853 251.415 245.542C250.986 246.232 250.31 246.732 249.386 247.045L252.215 252.762H249.347L246.81 247.376H244.742V252.762H242.244ZM244.742 245.542H247.103C247.936 245.542 248.547 245.34 248.937 244.937C249.327 244.534 249.523 244.001 249.523 243.337C249.523 242.687 249.327 242.166 248.937 241.776C248.56 241.386 247.942 241.191 247.084 241.191H244.742V245.542Z" fill="black" fill-opacity="0.3"/>
<path d="M254.421 252.762V238.713H256.06V244.742C256.386 244.144 256.847 243.682 257.446 243.357C258.044 243.018 258.695 242.849 259.397 242.849C260.516 242.849 261.413 243.201 262.09 243.903C262.766 244.592 263.104 245.659 263.104 247.103V252.762H261.485V247.279C261.485 245.262 260.672 244.254 259.046 244.254C258.2 244.254 257.491 244.56 256.919 245.171C256.346 245.77 256.06 246.628 256.06 247.747V252.762H254.421Z" fill="black" fill-opacity="0.3"/>
<path d="M266.583 240.937C266.258 240.937 265.984 240.833 265.763 240.625C265.555 240.404 265.451 240.131 265.451 239.805C265.451 239.493 265.555 239.233 265.763 239.025C265.984 238.817 266.258 238.713 266.583 238.713C266.895 238.713 267.162 238.817 267.383 239.025C267.604 239.233 267.715 239.493 267.715 239.805C267.715 240.131 267.604 240.404 267.383 240.625C267.162 240.833 266.895 240.937 266.583 240.937ZM265.763 252.762V243.083H267.402V252.762H265.763Z" fill="black" fill-opacity="0.3"/>
<path d="M270.256 252.762V243.083H271.739L271.837 244.82C272.149 244.209 272.598 243.727 273.183 243.376C273.769 243.025 274.432 242.849 275.174 242.849C276.318 242.849 277.229 243.201 277.905 243.903C278.595 244.592 278.939 245.659 278.939 247.103V252.762H277.3V247.279C277.3 245.262 276.468 244.254 274.803 244.254C273.97 244.254 273.274 244.56 272.715 245.171C272.169 245.77 271.895 246.628 271.895 247.747V252.762H270.256Z" fill="black" fill-opacity="0.3"/>
<path d="M285.833 252.996C284.922 252.996 284.103 252.788 283.374 252.372C282.646 251.955 282.067 251.37 281.637 250.615C281.221 249.848 281.013 248.95 281.013 247.923C281.013 246.895 281.228 246.004 281.657 245.249C282.086 244.482 282.665 243.89 283.394 243.474C284.135 243.057 284.961 242.849 285.872 242.849C286.782 242.849 287.602 243.057 288.33 243.474C289.059 243.89 289.631 244.482 290.047 245.249C290.477 246.004 290.691 246.895 290.691 247.923C290.691 248.95 290.477 249.848 290.047 250.615C289.618 251.37 289.033 251.955 288.291 252.372C287.563 252.788 286.743 252.996 285.833 252.996ZM285.833 251.591C286.392 251.591 286.912 251.454 287.394 251.181C287.875 250.908 288.265 250.498 288.564 249.952C288.864 249.406 289.013 248.729 289.013 247.923C289.013 247.116 288.864 246.44 288.564 245.893C288.278 245.347 287.894 244.937 287.413 244.664C286.932 244.391 286.418 244.254 285.872 244.254C285.312 244.254 284.792 244.391 284.311 244.664C283.829 244.937 283.439 245.347 283.14 245.893C282.841 246.44 282.691 247.116 282.691 247.923C282.691 248.729 282.841 249.406 283.14 249.952C283.439 250.498 283.823 250.908 284.291 251.181C284.772 251.454 285.286 251.591 285.833 251.591Z" fill="black" fill-opacity="0.3"/>
<path d="M297.529 252.762L301.705 245.874L297.529 239.103H299.383L302.739 244.566L305.939 239.103H307.774L303.598 245.952L307.793 252.762H305.939L302.564 247.279L299.383 252.762H297.529Z" fill="black" fill-opacity="0.3"/>
<path d="M117.503 227.713L118.244 222.21L113.873 225.644L112 222.327L117.112 220.298L112.039 218.346L113.795 215.185L118.283 218.581L117.503 213H121.132L120.351 218.581L124.8 215.185L126.517 218.307L121.444 220.337L126.557 222.366L124.722 225.605L120.351 222.21L121.093 227.713H117.503Z" fill="black" fill-opacity="0.3"/>
<defs>
<linearGradient id="paint0_linear" x1="129.576" y1="1.38752" x2="129.576" y2="44.7387" gradientUnits="userSpaceOnUse">
<stop stop-color="#302F2F"/>
<stop offset="1" stop-color="#CACACA"/>
</linearGradient>
</defs>
</svg>
