# Blender v2.77 (sub 0) OBJ File: ''
# www.blender.org
o Plane.001_Plane.008
v 0.874352 0.000000 -0.874352
v -0.874352 -0.000001 0.874352
v -0.874352 2.357385 0.874352
v 0.874352 2.357386 -0.874352
v 1.236520 0.000000 0.000000
v -1.236520 0.000000 0.000000
v -1.236520 2.594846 0.000000
v 1.236520 2.594846 0.000000
vt 0.4658 0.0000
vt 0.8000 0.0000
vt 0.8000 0.9998
vt 0.4658 0.9998
vt 0.1709 0.0000
vt 0.4528 0.0000
vt 0.4528 0.8833
vt 0.1709 0.8833
vn -0.7071 0.0000 -0.7071
vn 0.0000 0.0000 -1.0000
s 1
f 1/1/1 2/2/1 3/3/1 4/4/1
f 5/5/2 6/6/2 7/7/2 8/8/2
