# Blender v2.77 (sub 0) OBJ File: ''
# www.blender.org
o Plane.002_Plane.002
v -0.624593 1.138485 -0.712487
v 0.706147 1.138485 0.832289
v 0.665371 2.276969 0.772387
v -0.665370 2.276969 -0.772388
v -0.665370 0.000000 -0.772388
v 0.665370 -0.000000 0.772387
v 0.866659 0.000000 -0.536845
v -0.866659 -0.000000 0.536845
v -0.866659 2.540043 0.536845
v 0.866659 2.540043 -0.536845
v 0.133339 1.555969 -1.014992
v -0.315188 1.555969 0.973984
v -0.422710 2.164807 0.949737
v 0.025818 2.164807 -1.039239
v 0.224264 0.000000 -0.994488
v -0.224264 -0.000000 0.994488
v 1.019461 1.082404 -0.117503
v -1.019461 1.082404 -0.117503
v -1.019461 2.164807 0.000000
v 1.019461 2.164807 0.000000
v 1.019461 0.000000 0.000000
v -1.019461 0.000000 0.000000
vt 0.1675 0.4453
vt 0.4527 0.4453
vt 0.4527 0.8906
vt 0.1675 0.8906
vt 0.1675 0.0000
vt 0.4527 0.0000
vt 0.1675 0.0000
vt 0.4527 0.0000
vt 0.4527 0.8906
vt 0.1675 0.8906
vt 0.1675 0.5943
vt 0.4527 0.5943
vt 0.4527 0.8906
vt 0.1675 0.8906
vt 0.1675 0.0000
vt 0.4527 0.0000
vt 0.1675 0.4453
vt 0.4527 0.4453
vt 0.4527 0.8906
vt 0.1675 0.8906
vt 0.1675 0.0000
vt 0.4527 0.0000
vn -0.7576 0.0000 0.6527
vn -0.7576 0.0072 0.6527
vn -0.7576 -0.0072 0.6527
vn -0.5266 0.0000 -0.8501
vn -0.9686 -0.1192 -0.2184
vn -0.9599 -0.1781 -0.2165
vn -0.9738 -0.0598 -0.2196
vn 0.0000 0.0000 -1.0000
vn 0.0000 0.1079 -0.9942
vn 0.0000 -0.1079 -0.9942
s 1
f 1/1/1 2/2/1 3/3/2 4/4/2
f 5/5/3 6/6/3 2/2/1 1/1/1
f 7/7/4 8/8/4 9/9/4 10/10/4
f 11/11/5 12/12/5 13/13/6 14/14/6
f 15/15/7 16/16/7 12/12/5 11/11/5
f 17/17/8 18/18/8 19/19/9 20/20/9
f 21/21/10 22/22/10 18/18/8 17/17/8
