# Blender v2.77 (sub 0) OBJ File: ''
# www.blender.org
o Plane.001_Plane.006
v 0.859087 -0.000000 0.548880
v -0.859087 0.000000 -0.548880
v -0.859087 2.431422 -0.548879
v 0.859087 2.431422 0.548881
v 0.952435 0.000000 -0.363549
v -0.952435 -0.000000 0.363549
v -0.952435 2.251148 0.363549
v 0.952435 2.251148 -0.363549
v 1.019461 0.000000 0.000000
v -1.019461 0.000000 0.000000
v -1.019461 2.164807 0.000000
v 1.019461 2.164807 0.000000
vt 0.4761 0.0000
vt 0.7925 0.0000
vt 0.7925 0.9951
vt 0.4761 0.9951
vt 0.1663 0.0000
vt 0.4528 0.0000
vt 0.4528 0.8882
vt 0.1663 0.8882
vt 0.4761 0.0000
vt 0.7925 0.0000
vt 0.7925 0.9951
vt 0.4761 0.9951
vn 0.5384 0.0000 -0.8427
vn -0.3566 0.0000 -0.9343
vn 0.0000 0.0000 -1.0000
s 1
f 1/1/1 2/2/1 3/3/1 4/4/1
f 5/5/2 6/6/2 7/7/2 8/8/2
f 9/9/3 10/10/3 11/11/3 12/12/3
