# Blender v2.77 (sub 0) OBJ File: ''
# www.blender.org
o Plane.001_Plane.005
v 0.553970 1.142477 -0.052147
v -0.553970 1.142477 -0.052147
v -0.553970 1.713715 0.027525
v 0.553970 1.713715 0.027525
v 0.553970 -0.000000 0.027524
v -0.553970 -0.000000 0.027524
v -0.553970 0.571238 0.015371
v 0.553970 0.571238 0.015371
v 0.363548 1.142477 -0.432195
v -0.419884 1.142477 0.351237
v -0.363548 1.713715 0.407573
v 0.419884 1.713715 -0.375859
v 0.419884 -0.000000 -0.375859
v -0.363548 -0.000000 0.407573
v -0.372142 0.571238 0.398979
v 0.411290 0.571238 -0.384453
v 0.133320 1.142477 -0.551473
v -0.209091 1.142477 0.502228
v -0.133320 1.713715 0.526851
v 0.209091 1.713715 -0.526850
v 0.209091 -0.000000 -0.526850
v -0.133320 -0.000000 0.526850
v -0.144879 0.571238 0.523094
v 0.197532 0.571238 -0.530607
v -0.286974 1.142477 -0.487827
v 0.215984 1.142477 0.499372
v 0.286974 1.713715 0.463205
v -0.215984 1.713715 -0.523995
v -0.215984 -0.000000 -0.523995
v 0.286974 0.000000 0.463205
v 0.276144 0.571238 0.468722
v -0.226814 0.571238 -0.518478
vt 0.0000 0.6326
vt 0.1699 0.6326
vt 0.1699 0.9490
vt 0.0000 0.9490
vt 0.0000 0.0000
vt 0.1699 0.0000
vt 0.1699 0.3163
vt 0.0000 0.3163
vt 0.0000 0.6326
vt 0.1699 0.6326
vt 0.1699 0.9490
vt 0.0000 0.9490
vt 0.0000 0.0000
vt 0.1699 0.0000
vt 0.1699 0.3163
vt 0.0000 0.3163
vt 0.0000 0.6326
vt 0.1699 0.6326
vt 0.1699 0.9490
vt 0.0000 0.9490
vt 0.0000 0.0000
vt 0.1699 0.0000
vt 0.1699 0.3163
vt 0.0000 0.3163
vt 0.0000 0.6326
vt 0.1699 0.6326
vt 0.1699 0.9490
vt 0.0000 0.9490
vt 0.0000 0.0000
vt 0.1699 0.0000
vt 0.1699 0.3163
vt 0.0000 0.3163
vn 0.0000 0.0105 -0.9999
vn 0.0000 0.1381 -0.9904
vn 0.0000 -0.0213 -0.9998
vn 0.0000 -0.0694 -0.9976
vn -0.7071 0.0105 -0.7071
vn -0.7003 0.1381 -0.7003
vn -0.7069 -0.0213 -0.7069
vn -0.7054 -0.0694 -0.7054
vn -0.9510 0.0105 -0.3090
vn -0.9419 0.1381 -0.3061
vn -0.9508 -0.0213 -0.3090
vn -0.9488 -0.0694 -0.3083
vn -0.8910 0.0105 0.4539
vn -0.8825 0.1381 0.4496
vn -0.8908 -0.0213 0.4539
vn -0.8889 -0.0694 0.4529
s 1
f 1/1/1 2/2/1 3/3/2 4/4/2
f 5/5/3 6/6/3 7/7/4 8/8/4
f 8/8/4 7/7/4 2/2/1 1/1/1
f 9/9/5 10/10/5 11/11/6 12/12/6
f 13/13/7 14/14/7 15/15/8 16/16/8
f 16/16/8 15/15/8 10/10/5 9/9/5
f 17/17/9 18/18/9 19/19/10 20/20/10
f 21/21/11 22/22/11 23/23/12 24/24/12
f 24/24/12 23/23/12 18/18/9 17/17/9
f 25/25/13 26/26/13 27/27/14 28/28/14
f 29/29/15 30/30/15 31/31/16 32/32/16
f 32/32/16 31/31/16 26/26/13 25/25/13
