# Blender v2.77 (sub 0) OBJ File: ''
# www.blender.org
o Circle.001_Circle.008
v -0.000000 -0.000604 -0.233217
v -0.199646 -0.000604 -0.116987
v -0.199646 -0.000604 0.113545
v 0.000000 -0.000604 0.227846
v 0.199646 -0.000604 0.111389
v 0.199646 -0.000604 -0.119142
v 0.060274 0.355397 -0.209936
v -0.069526 0.355397 -0.134996
v -0.069526 0.355397 0.014884
v 0.060274 0.355397 0.089824
v 0.190075 0.355397 0.014884
v 0.190075 0.355397 -0.134996
v -0.000000 0.751023 -0.157541
v -0.093456 0.751065 -0.103934
v -0.093456 0.751166 0.004086
v 0.000000 0.751220 0.058443
v 0.093456 0.751175 0.004752
v 0.093456 0.751079 -0.103216
v 0.000000 1.189240 -0.112310
v -0.088435 1.189240 -0.061253
v -0.088435 1.189240 0.040863
v 0.000000 1.189240 0.091920
v 0.088435 1.189240 0.040863
v 0.088435 1.189240 -0.061253
v -0.000000 1.192806 -0.187091
v -0.116060 1.194790 -0.120084
v -0.116060 1.198560 0.013930
v 0.000000 1.200352 0.080937
v 0.116060 1.198560 0.013930
v 0.116060 1.194790 -0.120084
v 0.039006 0.636549 -0.205545
v -0.105367 0.636549 -0.121230
v -0.105367 0.636549 0.045113
v 0.039006 0.636549 0.127067
v 0.183379 0.636549 0.042654
v 0.183379 0.636549 -0.123615
v 0.005899 0.959126 0.136543
v 0.158019 0.956508 0.048716
v -0.146221 0.951446 -0.126937
v -0.146221 0.956508 0.048716
v 0.158019 0.951446 -0.126937
v 0.005899 0.949000 -0.214764
v 0.000000 1.103116 -0.174756
v -0.117446 1.103116 -0.106949
v -0.117446 1.103116 0.028666
v 0.000000 1.103116 0.096474
v 0.117446 1.103116 0.028666
v 0.117446 1.103116 -0.106949
v -0.000000 1.073469 -0.536431
v -0.449638 1.073469 -0.276832
v -0.449638 1.073469 0.242365
v 0.000000 1.073469 0.501964
v 0.449638 1.073469 0.242365
v 0.449638 1.073469 -0.276832
v -0.000000 0.987420 -0.950821
v -0.826615 0.987420 -0.473575
v -0.826615 0.987420 0.480919
v 0.000000 0.987420 0.958165
v 0.826615 0.987420 0.480918
v 0.826615 0.987420 -0.473575
v -0.000000 1.095916 -1.100888
v -0.956577 1.095916 -0.548608
v -0.956577 1.095916 0.555952
v 0.000000 1.095916 1.108232
v 0.956577 1.095916 0.555952
v 0.956577 1.095916 -0.548608
v -0.000000 1.583943 -0.901789
v -0.784152 1.583943 -0.449059
v -0.784152 1.583943 0.456403
v 0.000000 1.583943 0.909133
v 0.784152 1.583943 0.456402
v 0.784152 1.583943 -0.449059
v -0.000000 1.933871 -0.629787
v -0.548591 1.933871 -0.313057
v -0.548591 1.933871 0.320401
v 0.000000 1.933871 0.637130
v 0.548591 1.933871 0.320401
v 0.548591 1.933871 -0.313057
v -0.000000 2.087701 0.003672
v 0.000000 1.103116 -0.174756
v -0.117446 1.103116 -0.106949
v -0.117446 1.103116 0.028666
v 0.000000 1.103116 0.096474
v 0.117446 1.103116 0.028666
v 0.117446 1.103116 -0.106949
vt 0.3523 0.0007
vt 0.5549 0.0822
vt 0.5568 0.1235
vt 0.3223 0.0292
vt 0.0002 0.4223
vt 0.0037 0.2066
vt 0.0412 0.1902
vt 0.0371 0.4399
vt 0.5749 0.5437
vt 0.3902 0.6507
vt 0.3572 0.6273
vt 0.5710 0.5035
vt 0.0884 0.0785
vt 0.2928 0.0002
vt 0.0858 0.1198
vt 0.2529 0.6507
vt 0.0682 0.5419
vt 0.0725 0.5016
vt 0.2862 0.6275
vt 0.6369 0.2068
vt 0.6437 0.4217
vt 0.6072 0.4398
vt 0.5994 0.1911
vt 0.1503 0.2145
vt 0.3215 0.1350
vt 0.3221 0.5224
vt 0.1470 0.4192
vt 0.4910 0.2169
vt 0.2253 0.2671
vt 0.2287 0.3786
vt 0.3273 0.4317
vt 0.4204 0.3726
vt 0.4974 0.4208
vt 0.3163 0.2125
vt 0.4111 0.2628
vt 0.6441 0.5556
vt 0.7624 0.4873
vt 0.7624 0.6239
vt 0.8807 0.4190
vt 0.7624 0.3507
vt 0.6441 0.4190
vt 0.8807 0.5556
vt 0.7299 0.6642
vt 0.7282 0.6925
vt 0.7276 0.6922
vt 0.7294 0.6645
vt 0.7051 0.7093
vt 0.7050 0.7087
vt 0.6808 0.6954
vt 0.6808 0.6667
vt 0.6813 0.6669
vt 0.6813 0.6951
vt 0.7050 0.6511
vt 0.7051 0.6517
vt 0.6980 0.0189
vt 0.7209 0.0829
vt 0.6784 0.0993
vt 0.6441 0.0443
vt 0.9277 0.0178
vt 0.9061 0.0811
vt 0.8611 0.0710
vt 0.8709 0.0044
vt 0.8133 0.0002
vt 0.8137 0.0693
vt 0.7663 0.0719
vt 0.7554 0.0049
vt 0.9478 0.0962
vt 0.9806 0.0419
vt 0.9059 0.2261
vt 0.8763 0.2214
vt 0.8457 0.2186
vt 0.8144 0.2179
vt 0.7833 0.2194
vt 0.7528 0.2230
vt 0.7237 0.2283
vt 0.8970 0.3503
vt 0.8695 0.3485
vt 0.8422 0.3473
vt 0.8150 0.3468
vt 0.7879 0.3472
vt 0.7609 0.3484
vt 0.7341 0.3503
vt 0.5001 0.7004
vt 0.4932 0.6546
vt 0.5406 0.6511
vt 0.5411 0.6978
vt 0.4226 0.7210
vt 0.4032 0.6811
vt 0.4470 0.6645
vt 0.4600 0.7083
vt 0.5883 0.6542
vt 0.5822 0.7006
vt 0.6222 0.7090
vt 0.6352 0.6641
vt 0.6804 0.6817
vt 0.6595 0.7225
vt 0.5751 0.7566
vt 0.6084 0.7630
vt 0.6403 0.7732
vt 0.4739 0.7631
vt 0.5073 0.7567
vt 0.5413 0.7545
vt 0.4410 0.7732
vt 0.2155 0.8500
vt 0.2297 0.8256
vt 0.3098 0.8257
vt 0.2554 0.9194
vt 0.1733 0.8253
vt 0.1873 0.8499
vt 0.1471 0.9191
vt 0.0933 0.8252
vt 0.2157 0.8011
vt 0.1875 0.8010
vt 0.1476 0.7316
vt 0.2559 0.7319
vt 0.3022 0.9998
vt 0.1008 0.9998
vt 0.0002 0.8255
vt 0.1008 0.6511
vt 0.3022 0.6511
vt 0.4028 0.8255
vn 0.5074 -0.8104 -0.2929
vn 0.0000 -0.8104 -0.5859
vn 0.0000 -0.2340 -0.9722
vn 0.8419 -0.2340 -0.4861
vn 0.0000 -0.8104 0.5859
vn 0.5074 -0.8104 0.2929
vn 0.8419 -0.2340 0.4861
vn 0.0000 -0.2340 0.9722
vn -0.5074 -0.8104 -0.2929
vn -0.5074 -0.8104 0.2929
vn -0.8419 -0.2340 0.4861
vn -0.8419 -0.2340 -0.4861
vn 0.7586 0.4823 0.4380
vn 0.7586 0.4823 -0.4380
vn -0.7586 0.4823 0.4380
vn 0.0000 0.4823 0.8760
vn 0.0000 0.4823 -0.8760
vn 0.5290 0.7917 0.3054
vn 0.0000 0.7917 0.6109
vn -0.5290 0.7917 0.3054
vn -0.5290 0.7917 -0.3054
vn -0.7586 0.4823 -0.4380
vn 0.5290 0.7917 -0.3054
vn 0.0000 0.7917 -0.6109
vn 0.0000 1.0000 0.0000
vn 0.0529 -0.7814 0.6218
vn 0.0000 -0.7672 0.6414
vn 0.0000 0.0000 1.0000
vn -0.0529 -0.7814 0.6218
vn -0.0537 -0.8112 0.5822
vn 0.0000 -0.8269 0.5624
vn 0.0537 -0.8112 0.5822
vn -0.0538 0.0742 -0.9958
vn 0.0490 0.0961 -0.9941
vn 0.8588 0.1184 -0.4984
vn 0.8735 0.0012 -0.4868
vn 0.8210 0.1705 0.5448
vn 0.8768 0.1791 0.4463
vn 0.0527 0.2310 0.9715
vn -0.0377 0.3667 0.9296
vn -0.7813 0.4144 0.4667
vn -0.8479 0.2080 0.4876
vn -0.8296 0.1345 -0.5418
vn -0.8560 0.2917 -0.4268
vn 0.8451 0.1566 -0.5111
vn 0.8589 0.0977 0.5027
vn -0.0261 -0.0025 0.9996
vn -0.8762 -0.0348 0.4807
vn -0.8672 0.0219 -0.4973
vn -0.0248 0.1136 -0.9932
vn 0.8773 0.0559 -0.4767
vn 0.8529 -0.0333 0.5210
vn -0.0014 -0.0763 0.9971
vn -0.8535 -0.0336 0.5201
vn -0.8768 0.0564 -0.4775
vn 0.0015 0.1027 -0.9947
vn -0.0115 0.0945 0.9955
vn 0.0364 -0.0255 0.9990
vn 0.8739 0.0613 0.4823
vn 0.8521 0.1352 0.5055
vn -0.8724 -0.0005 -0.4887
vn -0.8529 -0.1187 -0.5084
vn -0.8495 -0.1158 0.5148
vn -0.8653 0.0297 0.5003
vn 0.8706 0.0635 -0.4879
vn 0.8595 0.1102 -0.4992
vn -0.0150 0.0386 -0.9991
vn 0.0305 -0.0256 -0.9992
vn 0.8465 0.1603 -0.5078
vn -0.0081 0.1126 -0.9936
vn -0.8560 0.1203 -0.5027
vn -0.8609 0.1759 0.4774
vn -0.0082 0.2243 0.9745
vn 0.8504 0.2164 0.4796
vn 0.0000 -0.9867 0.1627
vn -0.1360 -0.9873 0.0820
vn -0.1325 -0.9885 -0.0733
vn 0.0000 -0.9890 -0.1478
vn 0.1325 -0.9885 -0.0733
vn 0.1360 -0.9873 0.0820
vn -0.1728 -0.9801 0.0976
vn -0.1633 -0.9819 -0.0962
vn -0.0000 -0.9827 -0.1854
vn 0.1633 -0.9819 -0.0962
vn 0.1728 -0.9801 0.0976
vn 0.0000 -0.9791 0.2033
s 1
f 60/1/1 55/2/2 61/3/3 66/4/4
f 58/5/5 59/6/6 65/7/7 64/8/8
f 56/9/9 57/10/10 63/11/11 62/12/12
f 59/13/6 60/14/1 66/4/4 65/15/7
f 57/16/10 58/17/5 64/18/8 63/19/11
f 55/20/2 56/21/9 62/22/12 61/23/3
f 71/24/13 65/15/7 66/4/4 72/25/14
f 69/26/15 63/19/11 64/18/8 70/27/16
f 66/4/4 61/3/3 67/28/17 72/25/14
f 70/27/16 64/8/8 65/7/7 71/24/13
f 71/24/13 77/29/18 76/30/19 70/27/16
f 69/26/15 75/31/20 74/32/21 68/33/22
f 72/25/14 78/34/23 77/29/18 71/24/13
f 70/27/16 76/30/19 75/31/20 69/26/15
f 67/28/17 73/35/24 78/34/23 72/25/14
f 75/36/20 79/37/25 74/38/21
f 78/39/23 79/37/25 77/40/18
f 76/41/19 79/37/25 75/36/20
f 73/42/24 79/37/25 78/39/23
f 77/40/18 79/37/25 76/41/19
f 69/26/15 68/33/22 62/12/12 63/11/11
f 68/33/22 74/32/21 73/35/24 67/28/17
f 44/43/26 43/44/27 80/45/28 81/46/28
f 43/44/27 48/47/29 85/48/28 80/45/28
f 47/49/30 46/50/31 83/51/28 84/52/28
f 45/53/32 44/43/26 81/46/28 82/54/28
f 48/47/29 47/49/30 84/52/28 85/48/28
f 46/50/31 45/53/32 82/54/28 83/51/28
f 74/38/21 79/37/25 73/42/24
f 67/28/17 61/23/3 62/22/12 68/33/22
f 1/55/33 7/56/34 12/57/35 6/58/36
f 5/59/37 11/60/38 10/61/39 4/62/40
f 3/63/41 9/64/42 8/65/43 2/66/44
f 12/67/35 11/60/38 5/59/37 6/68/36
f 8/65/43 7/56/34 1/55/33 2/66/44
f 11/60/38 12/67/35 18/69/45 17/70/46
f 9/64/42 10/61/39 16/71/47 15/72/48
f 7/56/34 8/65/43 14/73/49 13/74/50
f 12/57/35 7/56/34 13/74/50 18/75/45
f 10/61/39 11/60/38 17/70/46 16/71/47
f 8/65/43 9/64/42 15/72/48 14/73/49
f 17/70/46 18/69/45 24/76/51 23/77/52
f 15/72/48 16/71/47 22/78/53 21/79/54
f 13/74/50 14/73/49 20/80/55 19/81/56
f 18/75/45 13/74/50 19/81/56 24/82/51
f 16/71/47 17/70/46 23/77/52 22/78/53
f 14/73/49 15/72/48 21/79/54 20/80/55
f 10/61/39 9/64/42 3/63/41 4/62/40
f 37/83/57 34/84/58 35/85/59 38/86/60
f 39/87/61 32/88/62 33/89/63 40/90/64
f 38/86/60 35/85/59 36/91/65 41/92/66
f 40/90/64 33/89/63 34/84/58 37/83/57
f 42/93/67 31/94/68 32/95/62 39/96/61
f 41/92/66 36/91/65 31/94/68 42/93/67
f 30/97/69 41/92/66 42/93/67 25/98/70
f 25/98/70 42/93/67 39/96/61 26/99/71
f 27/100/72 40/90/64 37/83/57 28/101/73
f 29/102/74 38/86/60 41/92/66 30/97/69
f 26/103/71 39/87/61 40/90/64 27/100/72
f 28/101/73 37/83/57 38/86/60 29/102/74
f 48/104/29 43/105/27 49/106/75 54/107/76
f 46/108/31 47/109/30 53/110/77 52/111/78
f 44/112/26 45/113/32 51/114/79 50/115/80
f 47/109/30 48/104/29 54/107/76 53/110/77
f 45/113/32 46/108/31 52/111/78 51/114/79
f 43/105/27 44/112/26 50/115/80 49/106/75
f 53/110/77 54/107/76 60/116/81 59/117/82
f 51/114/79 52/111/78 58/118/83 57/119/84
f 49/106/75 50/115/80 56/120/85 55/121/86
f 54/107/76 49/106/75 55/121/86 60/116/81
f 52/111/78 53/110/77 59/117/82 58/118/83
f 50/115/80 51/114/79 57/119/84 56/120/85
