# Blender v2.77 (sub 0) OBJ File: ''
# www.blender.org
o Circle.001_Circle.008
v 0.826615 1.870037 -0.473575
v 0.000000 1.870037 -0.950821
v 0.000000 2.041493 -1.100888
v 0.956577 2.041492 -0.548608
v 0.000000 1.870037 0.958165
v 0.826615 1.870037 0.480918
v 0.956577 2.041492 0.555952
v 0.000000 2.041492 1.108232
v -0.826615 1.870037 -0.473575
v -0.826615 1.870037 0.480919
v -0.956577 2.041492 0.555952
v -0.956577 2.041492 -0.548608
v 0.784152 2.605675 0.456402
v 0.784152 2.605675 -0.449059
v -0.784152 2.605675 0.456403
v 0.000000 2.605675 0.909133
v 0.000000 2.605675 -0.901789
v 0.548591 3.010207 0.320401
v 0.000000 3.010207 0.637130
v -0.548591 3.010207 0.320401
v -0.548591 3.010207 -0.313057
v -0.784152 2.605675 -0.449059
v 0.548591 3.010207 -0.313057
v 0.000000 3.010207 -0.629787
v 0.000000 3.188041 0.003672
v -0.117446 2.049818 -0.106949
v 0.000000 2.049818 -0.174756
v 0.000000 2.049818 -0.174756
v -0.117446 2.049818 -0.106949
v 0.117446 2.049818 -0.106949
v 0.117446 2.049818 -0.106949
v 0.117446 2.049818 0.028666
v 0.000000 2.049818 0.096474
v 0.000000 2.049818 0.096474
v 0.117446 2.049818 0.028666
v -0.117446 2.049818 0.028666
v -0.117446 2.049818 0.028666
v -0.020941 -0.000604 -0.301133
v 0.015025 0.478335 -0.155537
v 0.200046 0.478335 -0.048716
v 0.241575 -0.000604 -0.151135
v 0.241575 -0.000604 0.151993
v 0.200046 0.478335 0.164928
v 0.015025 0.478335 0.271750
v -0.020941 -0.000604 0.305123
v -0.283458 -0.000604 0.154827
v -0.169996 0.478335 0.164928
v -0.169996 0.478335 -0.048716
v -0.283458 -0.000604 -0.148301
v 0.123782 1.152951 -0.173284
v 0.123782 1.153013 -0.006088
v -0.020941 1.153042 0.077054
v -0.165664 1.153007 -0.007121
v -0.165664 1.152942 -0.174395
v -0.020941 1.152915 -0.257409
v 0.097759 1.948650 -0.113865
v 0.097759 1.948650 0.023197
v -0.020941 1.948650 0.091728
v -0.139641 1.948650 0.023197
v -0.139641 1.948650 -0.113865
v -0.020941 1.948650 -0.182396
v -0.011071 1.558223 0.189708
v -0.023119 1.225474 0.235964
v 0.241072 1.225474 0.081494
v 0.178664 1.552478 0.080164
v -0.200807 1.541377 -0.138924
v -0.287311 1.225474 -0.218400
v -0.287311 1.225474 0.085994
v -0.200807 1.552478 0.080164
v 0.241072 1.225474 -0.222764
v 0.178664 1.541377 -0.138924
v -0.011071 1.536012 -0.248468
v -0.023119 1.225474 -0.372692
v 0.110142 2.173666 -0.125143
v -0.019825 2.169758 -0.200180
v -0.149793 2.173666 -0.125143
v -0.149793 2.181090 0.024930
v -0.019825 2.184619 0.099967
v 0.110142 2.181090 0.024930
v 0.000000 2.015543 -0.536431
v 0.449638 2.015543 -0.276832
v 0.449638 2.015543 0.242365
v 0.000000 2.015543 0.501964
v -0.449638 2.015543 0.242365
v -0.449638 2.015543 -0.276832
vt 0.3523 0.0007
vt 0.5549 0.0822
vt 0.5568 0.1235
vt 0.3223 0.0292
vt 0.0002 0.4223
vt 0.0037 0.2066
vt 0.0412 0.1902
vt 0.0371 0.4399
vt 0.5749 0.5437
vt 0.3902 0.6507
vt 0.3572 0.6273
vt 0.5710 0.5035
vt 0.0884 0.0785
vt 0.2928 0.0002
vt 0.0858 0.1198
vt 0.2529 0.6507
vt 0.0682 0.5419
vt 0.0725 0.5016
vt 0.2862 0.6275
vt 0.6369 0.2068
vt 0.6437 0.4217
vt 0.6072 0.4398
vt 0.5994 0.1911
vt 0.1503 0.2145
vt 0.3215 0.1350
vt 0.3221 0.5224
vt 0.1470 0.4192
vt 0.4910 0.2169
vt 0.2253 0.2671
vt 0.2287 0.3786
vt 0.3273 0.4317
vt 0.4204 0.3726
vt 0.4974 0.4208
vt 0.3163 0.2125
vt 0.4111 0.2628
vt 0.6441 0.5556
vt 0.7624 0.4873
vt 0.7624 0.6239
vt 0.8807 0.4190
vt 0.7624 0.3507
vt 0.6441 0.4190
vt 0.8807 0.5556
vt 0.7299 0.6642
vt 0.7282 0.6925
vt 0.7276 0.6922
vt 0.7294 0.6645
vt 0.7051 0.7093
vt 0.7050 0.7087
vt 0.6808 0.6954
vt 0.6808 0.6667
vt 0.6813 0.6669
vt 0.6813 0.6951
vt 0.7050 0.6511
vt 0.7051 0.6517
vt 0.6980 0.0189
vt 0.7209 0.0829
vt 0.6784 0.0993
vt 0.6441 0.0443
vt 0.9277 0.0178
vt 0.9061 0.0811
vt 0.8611 0.0710
vt 0.8709 0.0044
vt 0.8133 0.0002
vt 0.8137 0.0693
vt 0.7663 0.0719
vt 0.7554 0.0049
vt 0.9478 0.0962
vt 0.9806 0.0419
vt 0.9059 0.2261
vt 0.8763 0.2214
vt 0.8457 0.2186
vt 0.8144 0.2179
vt 0.7833 0.2194
vt 0.7528 0.2230
vt 0.7237 0.2283
vt 0.8970 0.3503
vt 0.8695 0.3485
vt 0.8422 0.3473
vt 0.8150 0.3468
vt 0.7879 0.3472
vt 0.7609 0.3484
vt 0.7341 0.3503
vt 0.5001 0.7004
vt 0.4932 0.6546
vt 0.5406 0.6511
vt 0.5411 0.6978
vt 0.4226 0.7210
vt 0.4032 0.6811
vt 0.4470 0.6645
vt 0.4600 0.7083
vt 0.5883 0.6542
vt 0.5822 0.7006
vt 0.6222 0.7090
vt 0.6352 0.6641
vt 0.6804 0.6817
vt 0.6595 0.7225
vt 0.5751 0.7566
vt 0.6084 0.7630
vt 0.6403 0.7732
vt 0.4739 0.7631
vt 0.5073 0.7567
vt 0.5413 0.7545
vt 0.4410 0.7732
vt 0.2155 0.8500
vt 0.2297 0.8256
vt 0.3098 0.8257
vt 0.2554 0.9194
vt 0.1733 0.8253
vt 0.1873 0.8499
vt 0.1471 0.9191
vt 0.0933 0.8252
vt 0.2157 0.8011
vt 0.1875 0.8010
vt 0.1476 0.7316
vt 0.2559 0.7319
vt 0.3022 0.9998
vt 0.1008 0.9998
vt 0.0002 0.8255
vt 0.1008 0.6511
vt 0.3022 0.6511
vt 0.4028 0.8255
vn 0.6517 -0.6586 -0.3762
vn 0.0000 -0.6586 -0.7525
vn 0.0000 -0.1644 -0.9864
vn 0.8542 -0.1644 -0.4932
vn -0.0000 -0.6586 0.7525
vn 0.6517 -0.6586 0.3762
vn 0.8542 -0.1644 0.4932
vn 0.0000 -0.1644 0.9864
vn -0.6517 -0.6586 -0.3762
vn -0.6517 -0.6586 0.3762
vn -0.8542 -0.1644 0.4932
vn -0.8542 -0.1644 -0.4932
vn 0.7804 0.4335 0.4506
vn 0.7804 0.4335 -0.4506
vn -0.7804 0.4335 0.4506
vn 0.0000 0.4335 0.9012
vn 0.0000 0.4335 -0.9012
vn 0.5639 0.7589 0.3256
vn 0.0000 0.7589 0.6512
vn -0.5639 0.7589 0.3256
vn -0.5639 0.7589 -0.3256
vn -0.7804 0.4335 -0.4506
vn 0.5639 0.7589 -0.3256
vn 0.0000 0.7589 -0.6512
vn -0.0000 1.0000 0.0000
vn 0.0610 -0.7780 0.6253
vn 0.0000 -0.7619 0.6477
vn 0.0000 0.0000 1.0000
vn 0.0000 0.0000 0.0000
vn -0.0610 -0.7780 0.6253
vn -0.0622 -0.8126 0.5796
vn 0.0000 -0.8309 0.5565
vn 0.0622 -0.8126 0.5796
vn -0.0213 0.2923 -0.9561
vn 0.0215 0.0779 -0.9967
vn 0.8888 0.0986 -0.4475
vn 0.8299 0.1839 -0.5268
vn 0.8750 0.0636 0.4800
vn 0.8409 0.1403 0.5226
vn 0.0203 0.1680 0.9856
vn -0.0207 0.0710 0.9973
vn -0.8674 0.1953 0.4577
vn -0.8257 0.1654 0.5392
vn -0.8782 0.1172 -0.4637
vn -0.8196 0.2966 -0.4902
vn 0.8445 0.0283 -0.5348
vn 0.8774 0.1149 0.4658
vn -0.0109 0.1369 0.9905
vn -0.8858 0.0643 0.4596
vn -0.8490 -0.0138 -0.5283
vn -0.0064 -0.0273 -0.9996
vn 0.8724 0.0649 -0.4845
vn 0.8579 0.0090 0.5138
vn -0.0015 -0.0185 0.9998
vn -0.8585 0.0087 0.5128
vn -0.8718 0.0653 -0.4855
vn 0.0016 0.0938 -0.9956
vn 0.0102 0.1403 0.9901
vn -0.0073 0.1398 0.9902
vn 0.8681 0.1704 0.4663
vn 0.8486 0.1510 0.5071
vn -0.8517 0.2214 -0.4750
vn -0.8023 0.3429 -0.4887
vn -0.8576 0.2359 0.4570
vn -0.8410 0.1724 0.5128
vn 0.8079 0.2933 -0.5111
vn 0.8600 0.2004 -0.4692
vn 0.0068 0.2383 -0.9712
vn -0.0120 0.3690 -0.9293
vn 0.8603 0.1041 -0.4991
vn -0.0046 0.0759 -0.9971
vn -0.8650 0.0806 -0.4953
vn -0.8617 0.1134 0.4947
vn -0.0046 0.1417 0.9899
vn 0.8573 0.1371 0.4963
vn 0.0000 -0.9677 0.2522
vn -0.2112 -0.9691 0.1273
vn -0.2063 -0.9718 -0.1141
vn -0.0000 -0.9731 -0.2305
vn 0.2063 -0.9718 -0.1141
vn 0.2112 -0.9691 0.1273
vn -0.2820 -0.9461 0.1594
vn -0.2673 -0.9507 -0.1574
vn -0.0000 -0.9527 -0.3039
vn 0.2673 -0.9507 -0.1574
vn 0.2820 -0.9461 0.1594
vn 0.0000 -0.9435 0.3313
s 1
f 1/1/1 2/2/2 3/3/3 4/4/4
f 5/5/5 6/6/6 7/7/7 8/8/8
f 9/9/9 10/10/10 11/11/11 12/12/12
f 6/13/6 1/14/1 4/4/4 7/15/7
f 10/16/10 5/17/5 8/18/8 11/19/11
f 2/20/2 9/21/9 12/22/12 3/23/3
f 13/24/13 7/15/7 4/4/4 14/25/14
f 15/26/15 11/19/11 8/18/8 16/27/16
f 4/4/4 3/3/3 17/28/17 14/25/14
f 16/27/16 8/8/8 7/7/7 13/24/13
f 13/24/13 18/29/18 19/30/19 16/27/16
f 15/26/15 20/31/20 21/32/21 22/33/22
f 14/25/14 23/34/23 18/29/18 13/24/13
f 16/27/16 19/30/19 20/31/20 15/26/15
f 17/28/17 24/35/24 23/34/23 14/25/14
f 20/36/20 25/37/25 21/38/21
f 23/39/23 25/37/25 18/40/18
f 19/41/19 25/37/25 20/36/20
f 24/42/24 25/37/25 23/39/23
f 18/40/18 25/37/25 19/41/19
f 15/26/15 22/33/22 12/12/12 11/11/11
f 22/33/22 21/32/21 24/35/24 17/28/17
f 26/43/26 27/44/27 28/45/28 29/46/29
f 27/44/27 30/47/30 31/48/29 28/45/28
f 32/49/31 33/50/32 34/51/28 35/52/29
f 36/53/33 26/43/26 29/46/29 37/54/29
f 30/47/30 32/49/31 35/52/29 31/48/29
f 33/50/32 36/53/33 37/54/29 34/51/28
f 21/38/21 25/37/25 24/42/24
f 17/28/17 3/23/3 12/22/12 22/33/22
f 38/55/34 39/56/35 40/57/36 41/58/37
f 42/59/38 43/60/39 44/61/40 45/62/41
f 46/63/42 47/64/43 48/65/44 49/66/45
f 40/67/36 43/60/39 42/59/38 41/68/37
f 48/65/44 39/56/35 38/55/34 49/66/45
f 43/60/39 40/67/36 50/69/46 51/70/47
f 47/64/43 44/61/40 52/71/48 53/72/49
f 39/56/35 48/65/44 54/73/50 55/74/51
f 40/57/36 39/56/35 55/74/51 50/75/46
f 44/61/40 43/60/39 51/70/47 52/71/48
f 48/65/44 47/64/43 53/72/49 54/73/50
f 51/70/47 50/69/46 56/76/52 57/77/53
f 53/72/49 52/71/48 58/78/54 59/79/55
f 55/74/51 54/73/50 60/80/56 61/81/57
f 50/75/46 55/74/51 61/81/57 56/82/52
f 52/71/48 51/70/47 57/77/53 58/78/54
f 54/73/50 53/72/49 59/79/55 60/80/56
f 44/61/40 47/64/43 46/63/42 45/62/41
f 62/83/58 63/84/59 64/85/60 65/86/61
f 66/87/62 67/88/63 68/89/64 69/90/65
f 65/86/61 64/85/60 70/91/66 71/92/67
f 69/90/65 68/89/64 63/84/59 62/83/58
f 72/93/68 73/94/69 67/95/63 66/96/62
f 71/92/67 70/91/66 73/94/69 72/93/68
f 74/97/70 71/92/67 72/93/68 75/98/71
f 75/98/71 72/93/68 66/96/62 76/99/72
f 77/100/73 69/90/65 62/83/58 78/101/74
f 79/102/75 65/86/61 71/92/67 74/97/70
f 76/103/72 66/87/62 69/90/65 77/100/73
f 78/101/74 62/83/58 65/86/61 79/102/75
f 30/104/30 27/105/27 80/106/76 81/107/77
f 33/108/32 32/109/31 82/110/78 83/111/79
f 26/112/26 36/113/33 84/114/80 85/115/81
f 32/109/31 30/104/30 81/107/77 82/110/78
f 36/113/33 33/108/32 83/111/79 84/114/80
f 27/105/27 26/112/26 85/115/81 80/106/76
f 82/110/78 81/107/77 1/116/82 6/117/83
f 84/114/80 83/111/79 5/118/84 10/119/85
f 80/106/76 85/115/81 9/120/86 2/121/87
f 81/107/77 80/106/76 2/121/87 1/116/82
f 83/111/79 82/110/78 6/117/83 5/118/84
f 85/115/81 84/114/80 10/119/85 9/120/86
