# Blender v2.77 (sub 0) OBJ File: ''
# www.blender.org
o Cube.004_Cube.014
v -2.000633 0.000000 -1.282880
v -1.015237 0.000000 -2.089527
v -1.509968 2.758793 -2.089527
v -2.000633 3.012006 -1.725039
v 2.074290 0.000000 -0.417863
v 2.074290 2.030409 -1.334990
v 1.741031 2.758748 -2.089527
v 0.765167 0.000000 -2.089527
v 1.143108 0.000000 1.985395
v 2.074290 0.000000 0.576003
v -2.000633 0.000000 1.333012
v -2.000633 4.041867 1.086192
v -1.779353 4.380973 1.795358
v -1.040352 0.000000 1.985395
v -1.379827 3.238220 1.985395
v 1.234827 7.127449 0.943898
v 2.074290 3.812768 0.826466
v 2.074290 0.174292 0.671270
v 1.224604 0.225669 1.985395
v 1.812580 5.257378 1.292171
v 1.273938 2.011500 1.985395
v 0.039099 6.281843 -2.089527
v 1.067265 5.827616 -1.679129
v 1.036108 7.499485 0.355643
v -2.000633 6.084599 -0.907059
v -0.046103 7.822082 -0.268326
v -0.501209 7.146644 -1.532166
v -0.505187 6.906800 1.167181
v -1.621714 5.398427 1.579087
v -0.927345 7.229445 0.228942
v -1.712476 6.550565 0.050847
vt 0.8270 0.4818
vt 0.8776 0.5588
vt 0.8102 0.5018
vt 0.8766 0.7195
vt 0.8102 0.6915
vt 0.8776 0.6626
vt 0.1605 0.6564
vt 0.1720 0.7626
vt 0.1239 0.7704
vt 0.0620 0.5835
vt 0.1588 0.5887
vt 0.0802 0.6421
vt 0.0514 0.6173
vt 0.0286 0.6187
vt 0.7456 0.4789
vt 0.7585 0.3794
vt 0.8272 0.4355
vt 0.7024 0.4543
vt 0.7571 0.3728
vt 0.7787 0.3284
vt 0.7241 0.6012
vt 0.7347 0.5408
vt 0.7274 0.7192
vt 0.7022 0.6322
vt 0.3920 0.4835
vt 0.4350 0.5036
vt 0.4074 0.5606
vt 0.4038 0.6575
vt 0.4350 0.6200
vt 0.0226 0.5209
vt 0.1720 0.5046
vt 0.3053 0.6888
vt 0.2363 0.7229
vt 0.2503 0.6666
vt 0.0000 0.6609
vt 0.2536 0.5683
vt 0.2872 0.5795
vt 0.8755 0.4810
vt 0.8035 0.7198
vt 0.1670 0.7668
vt 0.0079 0.5660
vt 0.8389 0.4810
vt 0.7090 0.4557
vt 0.8389 0.3147
vt 0.2642 0.5016
vt 0.2354 0.5263
vt 0.3276 0.6403
vt 0.3212 0.7288
vt 0.3785 0.7389
vt 0.1012 0.4925
vt 0.0515 0.7766
vt 0.0049 0.7386
vn 0.9426 -0.0551 -0.3293
vn 0.3525 -0.1247 -0.9274
vn 0.6390 0.0652 -0.7664
vn -0.9173 -0.0578 -0.3939
vn -0.3591 0.0172 -0.9331
vn -0.3013 -0.0540 -0.9520
vn -0.2758 -0.0289 0.9608
vn 0.3814 -0.1377 0.9141
vn 0.4660 0.0345 0.8841
vn -0.9752 0.0208 0.2202
vn -0.8918 -0.0233 0.4517
vn -0.3888 0.0643 0.9191
vn -0.6132 0.1162 0.7813
vn -0.5617 0.3281 0.7595
vn 0.9420 -0.1046 0.3189
vn 0.9790 0.0949 0.1805
vn 0.9740 -0.1086 0.1988
vn 0.9641 -0.1093 -0.2420
vn 0.0754 0.4178 -0.9054
vn 0.7281 0.3785 -0.5715
vn -0.8597 0.3677 -0.3545
vn -0.1853 0.7262 -0.6620
vn -0.5736 0.7916 0.2104
vn -0.2245 0.5893 0.7761
vn 0.6184 0.5706 0.5404
vn 0.5707 0.8194 0.0540
vn -0.8580 0.0606 -0.5099
vn 0.5055 -0.0996 0.8571
vn -0.8054 0.5717 0.1564
vn 0.7789 0.2814 0.5604
vn -0.0188 0.9928 -0.1184
s 1
f 6/1/1 8/2/2 7/3/3
f 1/4/4 3/5/5 2/6/6
f 14/7/7 9/8/8 21/9/9
f 12/10/10 11/11/11 15/12/12
f 12/10/10 13/13/13 29/14/14
f 21/15/9 18/16/15 17/17/16
f 18/16/15 9/18/8 10/19/17
f 18/16/15 10/19/17 5/20/18
f 22/21/19 23/22/20 7/3/3
f 3/5/5 25/23/21 27/24/22
f 6/25/1 7/26/3 23/27/20
f 7/3/3 8/2/2 22/21/19
f 27/28/22 23/27/20 22/29/19
f 25/30/21 1/31/4 11/11/11
f 30/32/23 29/33/14 28/34/24
f 28/35/24 29/14/14 15/12/12
f 28/34/24 16/36/25 24/37/26
f 6/1/1 5/38/18 8/2/2
f 1/4/4 4/39/27 3/5/5
f 19/40/28 21/9/9 9/8/8
f 15/12/12 14/7/7 21/9/9
f 14/7/7 15/12/12 11/11/11
f 13/13/13 12/10/10 15/12/12
f 29/14/14 31/41/29 12/10/10
f 25/30/21 12/10/10 31/41/29
f 17/17/16 20/42/30 21/15/9
f 21/15/9 19/43/28 18/16/15
f 18/16/15 19/43/28 9/18/8
f 5/20/18 6/44/1 17/17/16
f 17/17/16 18/16/15 5/20/18
f 25/23/21 3/5/5 4/39/27
f 22/21/19 3/5/5 27/24/22
f 24/37/26 16/36/25 17/45/16
f 20/46/30 17/45/16 16/36/25
f 17/45/16 6/25/1 23/27/20
f 23/27/20 24/37/26 17/45/16
f 2/6/6 3/5/5 8/2/2
f 3/5/5 22/21/19 8/2/2
f 27/28/22 26/47/31 23/27/20
f 24/37/26 23/27/20 26/47/31
f 31/48/29 30/32/23 25/49/21
f 26/47/31 27/28/22 25/49/21
f 25/49/21 30/32/23 26/47/31
f 11/11/11 12/10/10 25/30/21
f 25/30/21 4/50/27 1/31/4
f 30/32/23 31/48/29 29/33/14
f 21/9/9 20/51/30 28/35/24
f 16/52/25 28/35/24 20/51/30
f 29/14/14 13/13/13 15/12/12
f 15/12/12 21/9/9 28/35/24
f 24/37/26 26/47/31 28/34/24
f 30/32/23 28/34/24 26/47/31
