# Blender v2.77 (sub 0) OBJ File: 'Pedras pequenas.blend'
# www.blender.org
o Cube.000_Cube.009
v -0.571699 0.000000 -0.471915
v -0.759604 0.000000 0.471915
v -0.021532 0.000000 -0.577976
v 0.524979 0.000000 0.000000
v -0.021532 0.000000 0.577976
v -0.593077 0.310755 0.000000
v -0.524922 0.398384 0.470704
v 0.020514 0.364110 0.606082
v 0.424692 0.000000 -0.471915
v -0.021532 0.159368 -0.660435
v -0.374756 0.350615 -0.490280
v -0.221653 0.567831 -0.095836
v 0.424692 0.000000 0.471915
v 0.504758 0.119695 -0.443246
vt 0.8595 0.0965
vt 0.6206 0.0002
vt 0.8860 0.0120
vt 0.9024 0.3876
vt 0.9998 0.3013
vt 0.9013 0.4243
vt 0.6615 0.1744
vt 0.7250 0.0836
vt 0.9998 0.1308
vt 0.5807 0.3081
vt 0.7472 0.3901
vt 0.7333 0.4353
vt 0.7477 0.2243
vt 0.6866 0.2976
vn 0.2750 0.5915 0.7579
vn -0.8030 0.3411 0.4887
vn 0.0318 -0.0806 0.9962
vn 0.8393 0.2889 -0.4604
vn 0.7664 0.6287 0.1317
vn 0.6039 -0.2869 -0.7436
vn -0.8148 0.5587 -0.1545
vn -0.4907 0.6786 0.5466
vn 0.6778 0.5916 0.4364
vn -0.7520 0.2557 -0.6075
vn 0.0990 0.2224 -0.9699
vn 0.0203 -0.4594 -0.8880
vn -0.0146 0.9905 -0.1367
vn -0.3887 0.6522 -0.6507
s 1
f 8/1/1 2/2/2 5/3/3
f 14/4/4 4/5/5 9/6/6
f 6/7/7 2/2/2 7/8/8
f 8/1/1 5/3/3 13/9/9
f 6/7/7 1/10/10 2/2/2
f 10/11/11 9/6/6 3/12/12
f 6/7/7 7/8/8 12/13/13
f 10/11/11 1/10/10 11/14/14
f 12/13/13 8/1/1 14/4/4
f 14/4/4 10/11/11 12/13/13
f 8/1/1 4/5/5 14/4/4
f 8/1/1 7/8/8 2/2/2
f 6/7/7 11/14/14 1/10/10
f 8/1/1 12/13/13 7/8/8
f 11/14/14 6/7/7 12/13/13
f 10/11/11 3/12/12 1/10/10
f 11/14/14 12/13/13 10/11/11
f 14/4/4 9/6/6 10/11/11
f 8/1/1 13/9/9 4/5/5
