# Blender v2.77 (sub 0) OBJ File: 'Pedras pequenas.blend'
# www.blender.org
o Cube.002_Cube.011
v -0.423761 0.000000 0.528944
v -0.423761 0.000000 -0.652036
v -0.706689 0.000000 0.020516
v 0.128036 0.000000 -0.602179
v 0.515388 0.000000 0.020516
v 0.128036 0.000000 0.643210
v -0.658160 0.308202 0.020516
v -0.494452 0.522836 0.184797
v -0.187384 0.695333 0.092196
v 0.391375 0.000000 -0.487913
v 0.068094 0.322899 -0.543679
v -0.465808 0.470009 -0.574137
v -0.119431 0.690892 -0.082736
v 0.391375 0.000000 0.528944
v 0.180030 0.488844 0.386472
v 0.350338 0.348506 -0.371069
vt 0.6317 0.7984
vt 0.7576 0.9656
vt 0.5489 0.9415
vt 0.6679 0.6163
vt 0.5187 0.6587
vt 0.6329 0.5210
vt 0.8616 0.7980
vt 0.7929 0.8019
vt 0.4895 0.8354
vt 0.9340 0.5810
vt 0.9340 0.8368
vt 0.7505 0.5954
vt 0.7509 0.4994
vt 0.7383 0.7589
vt 0.7415 0.7299
vt 0.8459 0.6627
vn 0.4079 0.7205 0.5608
vn -0.4700 0.4151 0.7789
vn 0.0697 0.4580 0.8862
vn 0.7012 0.5846 -0.4081
vn 0.9041 0.4237 0.0550
vn 0.7268 0.2641 -0.6340
vn -0.9227 0.3811 0.0581
vn -0.6272 0.7023 0.3368
vn 0.6854 0.4606 0.5640
vn -0.4781 0.1347 -0.8679
vn -0.9865 0.1553 0.0519
vn 0.2681 0.5040 -0.8210
vn 0.2534 0.2178 -0.9425
vn -0.1460 0.9649 0.2181
vn 0.0685 0.9793 -0.1903
vn -0.4902 0.5712 -0.6583
s 1
f 15/1/1 1/2/2 6/3/3
f 16/4/4 5/5/5 10/6/6
f 7/7/7 1/2/2 8/8/8
f 15/1/1 6/3/3 14/9/9
f 7/7/7 2/10/10 3/11/11
f 11/12/12 10/6/6 4/13/13
f 15/1/1 9/14/14 8/8/8
f 7/7/7 8/8/8 13/15/15
f 11/12/12 2/10/10 12/16/16
f 13/15/15 15/1/1 16/4/4
f 16/4/4 11/12/12 13/15/15
f 15/1/1 5/5/5 16/4/4
f 15/1/1 8/8/8 1/2/2
f 7/7/7 3/11/11 1/2/2
f 7/7/7 12/16/16 2/10/10
f 9/14/14 13/15/15 8/8/8
f 12/16/16 7/7/7 13/15/15
f 11/12/12 4/13/13 2/10/10
f 13/15/15 9/14/14 15/1/1
f 12/16/16 13/15/15 11/12/12
f 16/4/4 10/6/6 11/12/12
f 15/1/1 14/9/9 5/5/5
