# Blender v2.77 (sub 0) OBJ File: ''
# www.blender.org
o Cube.005_Cube.015
v -2.000633 2.662843 -0.856240
v -1.227465 4.074922 -0.438434
v -2.000633 0.000000 -1.282881
v -1.015237 0.000000 -2.089528
v -1.509968 1.170622 -2.089528
v -2.000633 1.278067 -1.725040
v 2.074290 0.000000 -0.417864
v 2.074290 0.861551 -1.334991
v 1.741031 1.170603 -2.089528
v 0.765167 0.000000 -2.089528
v 1.143108 0.000000 1.985393
v 2.074290 0.000000 0.576002
v -2.000633 0.000000 1.333010
v -2.000633 1.498367 1.584504
v -1.779353 1.858952 1.795357
v -1.040352 0.000000 1.985393
v -1.379827 1.374055 1.985393
v 1.356717 2.917100 1.013165
v -1.028424 4.074922 -0.558946
v 0.468031 4.074922 -0.038797
v 0.469485 4.074524 -0.039254
v -1.052582 4.074922 0.325530
v -1.323552 3.107265 1.170025
v -0.073356 3.815304 0.724414
v -0.232384 4.074922 0.459882
v 0.130819 2.754050 -2.089528
v 1.482316 1.615485 -2.089528
v 0.023788 3.514695 -1.547501
v 0.513694 3.616230 -1.131767
v 2.074290 1.617849 0.826464
v 2.074290 0.073956 0.671269
v 1.224604 0.095757 1.985393
v 1.812580 2.230832 1.292171
v 1.273938 0.853528 1.985393
vt 0.9628 0.8075
vt 0.9882 0.8794
vt 0.9537 0.8553
vt 0.0648 0.3865
vt 0.0868 0.4442
vt 0.0414 0.4532
vt 0.2336 0.4584
vt 0.1586 0.4925
vt 0.1374 0.4442
vt 0.9048 1.0000
vt 0.8799 0.9561
vt 0.9048 0.9284
vt 0.7859 0.7487
vt 0.8527 0.7332
vt 0.8395 0.8172
vt 0.8412 0.8849
vt 0.8527 0.9912
vt 0.8327 0.9982
vt 0.8019 0.8263
vt 0.8061 0.8694
vt 0.1077 0.3581
vt 0.1077 0.3582
vt 0.0000 0.4458
vt 0.0792 0.3973
vt 0.1716 0.3549
vt 0.1956 0.3829
vt 0.2289 0.3735
vt 0.2323 0.2905
vt 0.3956 0.8329
vt 0.4629 0.7959
vt 0.4629 0.8997
vt 0.2081 0.7739
vt 0.2232 0.8644
vt 0.1720 0.8234
vt 0.2300 0.7708
vt 0.2254 0.8692
vt 0.1857 0.8552
vt 0.2300 0.9186
vt 0.1914 0.2515
vt 0.9882 0.7593
vt 0.2125 0.4864
vt 0.1305 0.4554
vt 0.8776 0.9910
vt 0.8239 0.7198
vt 0.8508 0.9952
vt 0.7932 0.8441
vt 0.0510 0.2998
vt 0.0016 0.2919
vt 0.0371 0.2697
vt 0.0094 0.4714
vt 0.0226 0.4824
vt 0.4343 0.9286
vt 0.4234 0.7540
vt 0.4343 0.7389
vt 0.2267 0.7732
vt 0.2136 0.9632
vt 0.0655 0.2522
vt 0.2336 0.2733
vn 0.9380 -0.0544 -0.3424
vn 0.2526 -0.2106 -0.9443
vn 0.6714 0.0448 -0.7397
vn 0.1484 0.6586 0.7377
vn -0.4413 0.8287 0.3441
vn -0.4843 0.5560 0.6754
vn -0.3989 0.0786 -0.9136
vn -0.8661 0.3857 -0.3180
vn -0.2055 0.8609 -0.4654
vn -0.9305 -0.1197 -0.3461
vn -0.2550 -0.1078 -0.9609
vn -0.9016 -0.0716 0.4265
vn -0.2510 -0.0620 0.9660
vn 0.2718 -0.2314 0.9341
vn 0.4431 0.1119 0.8894
vn -0.8881 0.0653 0.4548
vn -0.2231 0.1164 0.9678
vn 0.5180 0.8554 -0.0002
vn 0.2456 0.9649 0.0923
vn 0.0646 0.9011 0.4287
vn 0.5415 0.7322 -0.4130
vn 0.0094 0.7007 -0.7134
vn 0.0183 0.4216 -0.9066
vn 0.5411 0.3487 -0.7652
vn 0.9113 -0.2514 0.3259
vn 0.7142 0.4491 0.5368
vn 0.9798 -0.1578 0.1225
vn 0.9658 0.1970 0.1684
vn 0.9725 -0.1696 -0.1593
vn -0.8302 0.1107 -0.5464
vn -0.5647 0.7949 -0.2219
vn 0.5117 -0.2350 0.8263
vn -0.5467 0.3530 0.7592
vn 0.6076 0.6341 0.4783
s 1
f 8/1/1 10/2/2 9/3/3
f 24/4/4 22/5/5 23/6/6
f 5/7/7 1/8/8 19/9/9
f 3/10/10 5/11/7 4/12/11
f 1/13/8 3/14/10 13/15/12
f 16/16/13 11/17/14 34/18/15
f 14/19/16 13/15/12 17/20/17
f 21/21/18 20/22/19 24/4/4
f 24/4/4 23/6/6 17/23/17
f 19/9/9 22/5/5 25/24/20
f 1/8/8 23/6/6 22/5/5
f 29/25/21 28/26/22 19/9/9
f 26/27/23 29/25/21 27/28/24
f 26/29/23 10/30/2 4/31/11
f 34/32/15 31/33/25 33/34/26
f 31/33/25 11/35/14 12/36/27
f 30/37/28 12/36/27 7/38/29
f 8/39/1 29/25/21 21/21/18
f 8/1/1 7/40/29 10/2/2
f 24/4/4 25/24/20 22/5/5
f 19/9/9 28/26/22 5/7/7
f 26/27/23 5/7/7 28/26/22
f 6/41/30 1/8/8 5/7/7
f 2/42/31 19/9/9 1/8/8
f 3/10/10 6/43/30 5/11/7
f 13/15/12 14/19/16 1/13/8
f 1/13/8 6/44/30 3/14/10
f 32/45/32 34/18/15 11/17/14
f 17/20/17 16/16/13 34/18/15
f 16/16/13 17/20/17 13/15/12
f 15/46/33 14/19/16 17/20/17
f 25/24/20 24/4/4 20/22/19
f 18/47/34 21/21/18 24/4/4
f 34/48/15 33/49/26 18/47/34
f 18/47/34 24/4/4 34/48/15
f 23/6/6 15/50/33 17/23/17
f 17/23/17 34/48/15 24/4/4
f 25/24/20 20/22/19 19/9/9
f 19/9/9 2/42/31 22/5/5
f 22/5/5 2/42/31 1/8/8
f 1/8/8 14/51/16 23/6/6
f 15/50/33 23/6/6 14/51/16
f 19/9/9 20/22/19 29/25/21
f 21/21/18 29/25/21 20/22/19
f 26/27/23 28/26/22 29/25/21
f 4/31/11 5/52/7 26/29/23
f 26/29/23 27/53/24 10/30/2
f 9/54/3 10/30/2 27/53/24
f 30/37/28 33/34/26 31/33/25
f 34/32/15 32/55/32 31/33/25
f 31/33/25 32/55/32 11/35/14
f 7/38/29 8/56/1 30/37/28
f 30/37/28 31/33/25 12/36/27
f 21/21/18 18/47/34 30/57/28
f 33/49/26 30/57/28 18/47/34
f 8/39/1 9/58/3 27/28/24
f 27/28/24 29/25/21 8/39/1
f 21/21/18 30/57/28 8/39/1
